<svg xmlns="http://www.w3.org/2000/svg" xmlns:xlink="http://www.w3.org/1999/xlink" width="1080" zoomAndPan="magnify" viewBox="0 0 810 1012.49997" height="1350" preserveAspectRatio="xMidYMid meet" version="1.0"><defs><clipPath id="1a88375796"><path d="M 4 0 L 809.800781 0 L 809.800781 1011 L 4 1011 Z M 4 0 " clip-rule="nonzero"/></clipPath><clipPath id="0a54976f0f"><path d="M 631 745 L 805.800781 745 L 805.800781 947 L 631 947 Z M 631 745 " clip-rule="nonzero"/></clipPath><clipPath id="228c38c402"><path d="M 359 231.503906 L 805.800781 231.503906 L 805.800781 659 L 359 659 Z M 359 231.503906 " clip-rule="nonzero"/></clipPath><clipPath id="88552c49e8"><path d="M 0.789062 231.503906 L 430 231.503906 L 430 733 L 0.789062 733 Z M 0.789062 231.503906 " clip-rule="nonzero"/></clipPath><clipPath id="8f1c71acfe"><path d="M 118 773 L 393 773 L 393 1009.59375 L 118 1009.59375 Z M 118 773 " clip-rule="nonzero"/></clipPath><clipPath id="f064e0a9cb"><path d="M 233 66 L 442 66 L 442 376 L 233 376 Z M 233 66 " clip-rule="nonzero"/></clipPath><clipPath id="dbd8b2b4f9"><path d="M 180.902344 0 L 459.15625 18.023438 L 435.246094 387.1875 L 156.996094 369.167969 Z M 180.902344 0 " clip-rule="nonzero"/></clipPath><clipPath id="fdb22d8436"><path d="M 180.902344 0 L 459.15625 18.023438 L 435.246094 387.1875 L 156.996094 369.167969 Z M 180.902344 0 " clip-rule="nonzero"/></clipPath><clipPath id="d881efc8f6"><path d="M 180.902344 0 L 459.15625 18.023438 L 435.246094 387.1875 L 156.996094 369.167969 Z M 180.902344 0 " clip-rule="nonzero"/></clipPath><clipPath id="fd3d85d671"><path d="M 177 3 L 283 3 L 283 111 L 177 111 Z M 177 3 " clip-rule="nonzero"/></clipPath><clipPath id="37d115b8e8"><path d="M 180.902344 0 L 459.15625 18.023438 L 435.246094 387.1875 L 156.996094 369.167969 Z M 180.902344 0 " clip-rule="nonzero"/></clipPath><clipPath id="bcd2b35238"><path d="M 180.902344 0 L 459.15625 18.023438 L 435.246094 387.1875 L 156.996094 369.167969 Z M 180.902344 0 " clip-rule="nonzero"/></clipPath><clipPath id="f055830ac9"><path d="M 180.902344 0 L 459.15625 18.023438 L 435.246094 387.1875 L 156.996094 369.167969 Z M 180.902344 0 " clip-rule="nonzero"/></clipPath><clipPath id="cc89f5d700"><path d="M 237 141 L 431 141 L 431 373 L 237 373 Z M 237 141 " clip-rule="nonzero"/></clipPath><clipPath id="6b6a19ca4f"><path d="M 180.902344 0 L 459.15625 18.023438 L 435.246094 387.1875 L 156.996094 369.167969 Z M 180.902344 0 " clip-rule="nonzero"/></clipPath><clipPath id="0682933d53"><path d="M 180.902344 0 L 459.15625 18.023438 L 435.246094 387.1875 L 156.996094 369.167969 Z M 180.902344 0 " clip-rule="nonzero"/></clipPath><clipPath id="79a582f918"><path d="M 180.902344 0 L 459.15625 18.023438 L 435.246094 387.1875 L 156.996094 369.167969 Z M 180.902344 0 " clip-rule="nonzero"/></clipPath><clipPath id="3b351aaf9a"><rect x="0" width="806" y="0" height="1011"/></clipPath></defs><g clip-path="url(#1a88375796)"><g transform="matrix(1, 0, 0, 1, 4, 0)"><g clip-path="url(#3b351aaf9a)"><g clip-path="url(#0a54976f0f)"><path fill="#585e62" d="M 723.996094 945.925781 L 723.996094 946.121094 C 775.433594 949.496094 802.75 902.03125 806.339844 856.511719 C 810.082031 809.109375 789.839844 758.898438 743.925781 754.652344 L 648.917969 745.894531 L 631.253906 937.363281 Z M 723.996094 945.925781 " fill-opacity="1" fill-rule="nonzero"/></g><path fill="#585e62" d="M 624.253906 936.917969 C 627.101562 937.1875 629.492188 937.402344 631.46875 937.402344 L 631.46875 937.597656 C 682.90625 940.96875 710.226562 893.507812 713.8125 847.984375 C 717.554688 800.582031 697.316406 750.367188 651.398438 746.128906 C 644.710938 745.503906 637.632812 745.933594 630.324219 747.367188 L 464.640625 800.15625 C 443.703125 806.492188 427.859375 828.953125 425.359375 856.027344 C 422.199219 890.230469 441.683594 920.117188 468.789062 922.597656 L 624.273438 936.917969 Z M 624.253906 936.917969 " fill-opacity="1" fill-rule="nonzero"/><path fill="#35393b" d="M 633.390625 911.398438 C 648.335938 912.308594 660.804688 906.648438 670.421875 894.554688 C 679.84375 882.714844 686.105469 864.984375 687.601562 845.914062 C 690.257812 812.191406 677.632812 774.925781 648.976562 772.289062 C 642.792969 771.730469 635.851562 772.621094 628.34375 774.945312 L 626.5625 775.507812 L 472.378906 825.269531 C 463.285156 828.023438 453.183594 840.3125 451.515625 858.46875 C 449.75 877.578125 458.941406 895.351562 471.195312 896.472656 C 471.195312 896.472656 626.484375 910.777344 633.40625 911.417969 Z M 633.390625 911.398438 " fill-opacity="1" fill-rule="nonzero"/><g clip-path="url(#228c38c402)"><path stroke-linecap="round" transform="matrix(0.486505, 0, 0, 0.48626, 0.79076, 231.503677)" fill="none" stroke-linejoin="miter" d="M 1463.447366 23.031789 C 1431.370697 32.599386 1404.496952 57.55065 1393.978695 91.981146 C 1377.318097 146.583124 1408.086006 204.374301 1462.692621 221.067387 C 1517.291207 237.728341 1575.077386 206.961006 1591.77813 152.359028 C 1602.183978 118.249862 1594.090541 82.855377 1573.206582 57.068655 " stroke="#585e62" stroke-width="46.071999" stroke-opacity="1" stroke-miterlimit="10"/></g><path fill="#cfcfcf" d="M 677.289062 446.113281 L 681.742188 447.46875 C 702.65625 453.847656 724.785156 442.074219 731.167969 421.171875 L 741.765625 386.453125 C 748.152344 365.550781 736.367188 343.433594 715.453125 337.054688 L 711 335.695312 C 690.085938 329.316406 667.960938 341.089844 661.578125 361.996094 L 650.976562 396.710938 C 644.597656 417.617188 656.375 439.734375 677.289062 446.113281 Z M 677.289062 446.113281 " fill-opacity="1" fill-rule="nonzero"/><path fill="#585e62" d="M 645.078125 513.132812 L 606.824219 480.5 L 655.992188 422.921875 C 665 412.367188 680.886719 411.113281 691.445312 420.121094 C 702.003906 429.128906 703.261719 445.003906 694.246094 455.558594 Z M 645.078125 513.132812 " fill-opacity="1" fill-rule="nonzero"/><path fill="#9e9e9e" d="M 615.898438 564.386719 C 649.09375 564.386719 676 537.488281 676 504.308594 C 676 471.128906 649.09375 444.234375 615.898438 444.234375 C 582.699219 444.234375 555.792969 471.128906 555.792969 504.308594 C 555.792969 537.488281 582.699219 564.386719 615.898438 564.386719 Z M 615.898438 564.386719 " fill-opacity="1" fill-rule="nonzero"/><path fill="#cfcfcf" d="M 355.925781 289.195312 C 472.339844 258.480469 563.292969 342.566406 589.351562 441.226562 L 227.996094 536.574219 C 201.933594 437.933594 247.769531 317.742188 355.925781 289.214844 Z M 355.925781 289.195312 " fill-opacity="1" fill-rule="nonzero"/><path fill="#9e9e9e" d="M 272.222656 340.300781 C 264.019531 382.449219 259.890625 470.609375 304.929688 516.5 L 227.996094 536.558594 C 210.195312 469.15625 225.960938 391.714844 272.222656 340.300781 Z M 272.222656 340.300781 " fill-opacity="1" fill-rule="nonzero"/><path fill="#585e62" d="M 390.417969 307.683594 C 490.136719 284.175781 559.824219 363.285156 580.976562 443.417969 L 287.421875 520.878906 C 266.25 440.742188 283.640625 332.859375 390.417969 307.683594 Z M 390.417969 307.683594 " fill-opacity="1" fill-rule="nonzero"/><path fill="#49b04a" d="M 475.035156 338.089844 C 494.132812 333.050781 514.667969 348.089844 520.890625 371.675781 L 451.726562 389.910156 C 445.503906 366.324219 455.933594 343.109375 475.015625 338.070312 Z M 475.035156 338.089844 " fill-opacity="1" fill-rule="nonzero"/><path fill="#49b04a" d="M 344.019531 372.664062 C 367.074219 366.578125 390.828125 380.765625 397.050781 404.367188 L 313.5625 426.402344 C 307.335938 402.816406 320.96875 378.75 344.019531 372.683594 Z M 344.019531 372.664062 " fill-opacity="1" fill-rule="nonzero"/><path fill="#49b04a" d="M 470.9375 415.011719 C 474.683594 414.019531 476.761719 409.585938 475.578125 405.105469 C 474.394531 400.625 470.398438 397.792969 466.648438 398.78125 C 462.902344 399.773438 460.824219 404.207031 462.007812 408.6875 C 463.191406 413.167969 467.1875 416 470.9375 415.011719 Z M 470.9375 415.011719 " fill-opacity="1" fill-rule="nonzero"/><path fill="#49b04a" d="M 446.414062 428.402344 C 450.160156 427.414062 452.242188 422.980469 451.058594 418.5 C 449.875 414.019531 445.875 411.1875 442.128906 412.175781 C 438.378906 413.164062 436.300781 417.597656 437.484375 422.082031 C 438.667969 426.5625 442.664062 429.390625 446.414062 428.402344 Z M 446.414062 428.402344 " fill-opacity="1" fill-rule="nonzero"/><path fill="#49b04a" d="M 419.773438 435.433594 C 423.519531 434.445312 425.597656 430.007812 424.414062 425.527344 C 423.230469 421.046875 419.234375 418.21875 415.484375 419.207031 C 411.738281 420.195312 409.660156 424.628906 410.84375 429.109375 C 412.027344 433.589844 416.023438 436.421875 419.773438 435.433594 Z M 419.773438 435.433594 " fill-opacity="1" fill-rule="nonzero"/><path fill="#49b04a" d="M 390.984375 436.128906 C 394.734375 435.140625 396.8125 430.703125 395.628906 426.222656 C 394.445312 421.742188 390.449219 418.914062 386.699219 419.902344 C 382.953125 420.890625 380.871094 425.324219 382.054688 429.804688 C 383.238281 434.285156 387.238281 437.117188 390.984375 436.128906 Z M 390.984375 436.128906 " fill-opacity="1" fill-rule="nonzero"/><path fill="#3e4244" d="M 412.367188 503.28125 C 512.269531 477.421875 591.597656 450.066406 589.554688 442.179688 C 587.511719 434.296875 504.867188 448.867188 404.96875 474.726562 C 305.066406 500.589844 225.738281 527.945312 227.78125 535.828125 C 229.824219 543.714844 312.464844 529.140625 412.367188 503.28125 Z M 412.367188 503.28125 " fill-opacity="1" fill-rule="nonzero"/><path fill="#9e9e9e" d="M 378.320312 492.429688 C 378.320312 492.429688 279.394531 461.808594 194.914062 571.070312 C 194.914062 571.070312 196.835938 615.296875 212.773438 650.042969 C 217.253906 659.789062 219.113281 671.226562 218.472656 682.832031 C 217.71875 696.574219 216.203125 717.523438 222.546875 741.6875 C 269.195312 919.492188 451.125 905.503906 451.125 905.503906 L 521.292969 879.324219 L 378.320312 492.410156 Z M 378.320312 492.429688 " fill-opacity="1" fill-rule="nonzero"/><path fill="#cfcfcf" d="M 284.863281 623.609375 C 285.542969 612.484375 283.699219 601.089844 279.164062 590.875 C 263.03125 554.480469 261.246094 511.34375 261.246094 511.34375 C 367.808594 448.941406 446.375 476.925781 446.375 476.925781 C 446.375 476.925781 509.621094 422.585938 631.507812 442.507812 C 631.507812 442.507812 645.347656 483.398438 643.390625 523.144531 C 642.847656 534.289062 645.210938 545.585938 649.847656 555.722656 C 655.355469 567.71875 662.355469 586.382812 666.929688 610.953125 C 700.121094 789.285156 521.257812 879.324219 521.257812 879.324219 C 521.257812 879.324219 321.972656 859.609375 288.78125 681.261719 C 284.203125 656.691406 284.027344 636.769531 284.84375 623.589844 Z M 284.863281 623.609375 " fill-opacity="1" fill-rule="nonzero"/><path fill="#49b04a" d="M 515.050781 846.03125 C 544.25 828.878906 664.214844 749.476562 639.398438 616.089844 C 635.441406 594.851562 629.429688 579.09375 625.089844 569.597656 C 617.835938 553.746094 614.445312 536.460938 615.257812 519.5625 C 616.089844 502.683594 613.277344 485.007812 610.429688 472.082031 C 584.078125 469.347656 558.890625 470.183594 535.332031 474.5625 C 488.644531 483.242188 464.136719 503.207031 463.882812 503.398438 L 452.65625 513.050781 L 439.394531 507.835938 C 439.394531 507.835938 409.265625 498.011719 362.59375 506.695312 C 339.015625 511.074219 315.226562 519.367188 291.628906 531.363281 C 293.628906 544.445312 297.351562 561.945312 304.195312 577.410156 C 311.039062 592.855469 314.101562 610.21875 313.035156 627.601562 C 312.394531 638.027344 312.453125 654.890625 316.410156 676.128906 C 341.34375 810.121094 481.625 840.601562 515.070312 846.011719 Z M 515.050781 846.03125 " fill-opacity="1" fill-rule="nonzero"/><path fill="#35393b" d="M 440.480469 615.761719 C 436.253906 593.027344 448.703125 571.652344 468.265625 568.007812 C 487.832031 564.367188 507.140625 579.847656 511.367188 602.5625 C 515.011719 622.175781 506.230469 640.757812 491.183594 647.832031 L 529.015625 741.222656 L 503.144531 755.488281 L 473.871094 751.476562 L 475.574219 650.738281 C 458.980469 649.558594 444.105469 635.371094 440.460938 615.761719 Z M 440.480469 615.761719 " fill-opacity="1" fill-rule="nonzero"/><g clip-path="url(#88552c49e8)"><path stroke-linecap="round" transform="matrix(0.486505, 0, 0, 0.48626, 0.79076, 231.503677)" fill="none" stroke-linejoin="miter" d="M 145.268894 172.771508 C 178.188629 178.908908 207.519311 200.863772 221.594505 234.025014 C 243.907662 286.594581 219.402532 347.293793 166.867452 369.610153 C 114.300255 391.926512 53.607503 367.417076 31.286317 314.887676 C 17.33959 282.047763 21.683389 246.018652 39.733039 218.159352 " stroke="#585e62" stroke-width="46.071999" stroke-opacity="1" stroke-miterlimit="10"/></g><path fill="#cfcfcf" d="M 83.003906 407.753906 L 78.722656 409.574219 C 58.597656 418.121094 49.214844 441.355469 57.765625 461.46875 L 71.96875 494.878906 C 80.519531 514.992188 103.765625 524.371094 123.890625 515.824219 L 128.171875 514.003906 C 148.296875 505.457031 157.679688 482.222656 149.128906 462.109375 L 134.929688 428.703125 C 126.378906 408.585938 103.132812 399.207031 83.003906 407.753906 Z M 83.003906 407.753906 " fill-opacity="1" fill-rule="nonzero"/><path fill="#585e62" d="M 111.375 489.726562 C 120.925781 479.65625 136.851562 479.234375 146.925781 488.78125 L 201.878906 540.867188 L 167.269531 577.347656 L 112.316406 525.257812 C 102.242188 515.710938 101.820312 499.792969 111.375 489.726562 Z M 111.375 489.726562 " fill-opacity="1" fill-rule="nonzero"/><path fill="#cfcfcf" d="M 195.363281 625.546875 C 228.558594 625.546875 255.46875 598.648438 255.46875 565.46875 C 255.46875 532.289062 228.558594 505.394531 195.363281 505.394531 C 162.167969 505.394531 135.253906 532.289062 135.253906 565.46875 C 135.253906 598.648438 162.167969 625.546875 195.363281 625.546875 Z M 195.363281 625.546875 " fill-opacity="1" fill-rule="nonzero"/><path fill="#585e62" d="M 432.414062 934.980469 L 432.472656 935.152344 C 481.507812 919.203125 489.246094 865 475.691406 821.394531 C 461.578125 775.988281 424.136719 736.863281 379.910156 749.964844 L 288.429688 777.074219 L 343.109375 961.414062 L 432.394531 934.980469 Z M 432.414062 934.980469 " fill-opacity="1" fill-rule="nonzero"/><g clip-path="url(#8f1c71acfe)"><path fill="#585e62" d="M 336.457031 963.601562 C 339.210938 962.789062 341.5 962.109375 343.324219 961.375 L 343.378906 961.550781 C 392.417969 945.601562 400.152344 891.394531 386.597656 847.789062 C 372.484375 802.382812 335.042969 763.257812 290.816406 776.359375 C 284.359375 778.273438 277.960938 781.28125 271.699219 785.328125 L 137.425781 895.792969 C 120.324219 909.4375 113.964844 936.183594 121.683594 962.246094 C 131.457031 995.191406 160.636719 1015.695312 186.734375 1007.964844 L 336.441406 963.601562 Z M 336.457031 963.601562 " fill-opacity="1" fill-rule="nonzero"/></g><path fill="#35393b" d="M 335.449219 936.511719 C 349.679688 931.820312 359.144531 921.941406 363.582031 907.132812 C 367.925781 892.636719 367.171875 873.859375 361.488281 855.605469 C 351.445312 823.296875 325.871094 793.378906 298.28125 801.550781 C 292.328125 803.316406 286.21875 806.726562 280.09375 811.671875 L 278.640625 812.851562 L 153.925781 916.242188 C 146.5 922.171875 141.691406 937.324219 146.871094 954.804688 C 152.335938 973.214844 167.460938 986.296875 179.25 982.808594 C 179.25 982.808594 328.761719 938.507812 335.410156 936.53125 Z M 335.449219 936.511719 " fill-opacity="1" fill-rule="nonzero"/><path fill="#cfcfcf" d="M 323.78125 923.085938 C 345.515625 916.648438 356.273438 888.285156 347.808594 859.738281 C 339.339844 831.1875 314.859375 813.265625 293.125 819.703125 C 271.386719 826.148438 260.632812 854.503906 269.097656 883.054688 C 277.5625 911.601562 302.046875 929.527344 323.78125 923.085938 Z M 323.78125 923.085938 " fill-opacity="1" fill-rule="nonzero"/><path fill="#cfcfcf" d="M 185.996094 970.171875 C 196.417969 967.085938 201.574219 953.484375 197.515625 939.796875 C 193.457031 926.105469 181.714844 917.511719 171.296875 920.597656 C 160.875 923.6875 155.71875 937.285156 159.777344 950.972656 C 163.835938 964.664062 175.574219 973.261719 185.996094 970.171875 Z M 185.996094 970.171875 " fill-opacity="1" fill-rule="nonzero"/><g clip-path="url(#f064e0a9cb)"><g clip-path="url(#dbd8b2b4f9)"><g clip-path="url(#fdb22d8436)"><g clip-path="url(#d881efc8f6)"><path fill="#f8c311" d="M 247.191406 375.023438 L 233.054688 66.699219 L 441.71875 286.839844 C 441.71875 286.839844 365.9375 377.882812 247.191406 375.015625 Z M 247.191406 375.023438 " fill-opacity="1" fill-rule="nonzero"/></g></g></g></g><g clip-path="url(#fd3d85d671)"><g clip-path="url(#37d115b8e8)"><g clip-path="url(#bcd2b35238)"><g clip-path="url(#f055830ac9)"><path fill="#76d4dc" d="M 244.347656 62.425781 L 278.128906 89.984375 L 271.542969 98.136719 L 234.132812 67.609375 L 229.066406 110.777344 L 218.691406 109.550781 L 223.039062 72.511719 L 197.378906 100.214844 L 189.738281 93.070312 L 218.378906 62.148438 L 177.507812 61.707031 L 177.628906 51.214844 L 214.511719 51.617188 L 186.695312 28.914062 L 193.28125 20.765625 L 225.976562 47.445312 L 231.167969 3.269531 L 241.542969 4.5 L 237.148438 41.878906 L 265.289062 11.5 L 272.929688 18.644531 L 242.125 51.902344 L 282.71875 52.339844 L 282.597656 62.832031 L 244.347656 62.417969 Z M 244.347656 62.425781 " fill-opacity="1" fill-rule="nonzero"/></g></g></g></g><g clip-path="url(#cc89f5d700)"><g clip-path="url(#6b6a19ca4f)"><g clip-path="url(#0682933d53)"><g clip-path="url(#79a582f918)"><path fill="#ff6736" d="M 241.488281 198.339844 C 240.664062 198.285156 239.859375 198.152344 239.070312 197.988281 L 237.566406 165.269531 C 239.488281 164.667969 241.542969 164.386719 243.671875 164.523438 C 252.964844 165.125 260.007812 173.183594 259.402344 182.527344 C 258.796875 191.867188 250.777344 198.949219 241.480469 198.347656 Z M 284.609375 220.164062 C 284.003906 229.503906 291.046875 237.5625 300.34375 238.164062 C 309.636719 238.765625 317.660156 231.683594 318.265625 222.34375 C 318.871094 213.003906 311.828125 204.945312 302.535156 204.34375 C 293.238281 203.742188 285.214844 210.824219 284.609375 220.164062 Z M 304.09375 141.648438 C 301.964844 144.277344 300.59375 147.566406 300.359375 151.214844 C 299.753906 160.554688 306.796875 168.613281 316.089844 169.214844 C 320.203125 169.480469 324.0625 168.238281 327.144531 165.96875 L 304.097656 141.65625 Z M 266.722656 307.925781 C 276.019531 308.527344 284.042969 301.445312 284.648438 292.101562 C 285.253906 282.761719 278.210938 274.703125 268.914062 274.101562 C 259.621094 273.5 251.597656 280.582031 250.992188 289.921875 C 250.386719 299.265625 257.429688 307.324219 266.722656 307.925781 Z M 320.414062 363.25 C 321.019531 353.910156 313.976562 345.851562 304.683594 345.25 C 295.386719 344.648438 287.363281 351.730469 286.761719 361.070312 C 286.496094 365.128906 287.683594 368.941406 289.859375 372.007812 C 300.449219 370.25 310.578125 367.796875 320.230469 364.84375 C 320.316406 364.324219 320.382812 363.789062 320.414062 363.25 Z M 345.859375 274.785156 C 336.5625 274.183594 328.539062 281.265625 327.9375 290.605469 C 327.332031 299.949219 334.375 308.007812 343.667969 308.609375 C 352.964844 309.210938 360.988281 302.128906 361.589844 292.785156 C 362.195312 283.445312 355.152344 275.386719 345.859375 274.785156 Z M 430.742188 298.390625 C 428.378906 292.570312 422.890625 288.300781 416.234375 287.867188 C 406.941406 287.265625 398.917969 294.347656 398.3125 303.691406 C 397.886719 310.28125 401.277344 316.226562 406.578125 319.367188 C 416.765625 311.472656 424.882812 304.113281 430.742188 298.390625 Z M 392.359375 234.765625 L 370.027344 211.203125 C 364.992188 213.859375 361.40625 218.992188 361.007812 225.105469 C 360.40625 234.445312 367.445312 242.503906 376.742188 243.105469 C 383.308594 243.53125 389.234375 240.109375 392.359375 234.765625 Z M 392.359375 234.765625 " fill-opacity="1" fill-rule="nonzero"/></g></g></g></g></g></g></g></svg>