<svg xmlns="http://www.w3.org/2000/svg" viewBox="0 0 1108.13 940.2"><defs><style>.a{fill:#ccc}.b{fill:#2f4858}.c{fill:none;stroke:#2f4858;stroke-linecap:round;stroke-miterlimit:10;stroke-width:40px}.d{fill:#b3b3b3}.e{fill:#1f2f38}.f{fill:#49b04a}</style></defs><title>Asset 2</title><path class="a" d="M552.69,0C383.59,0,290.24,143.46,290.24,283.52H815.15C815.15,143.46,709.81,0,552.69,0Z"/><path class="b" d="M552.69,53.2c-137.37,0-213.21,116.54-213.21,230.32L552.69,307.7,765.9,283.52C765.9,169.74,680.33,53.2,552.69,53.2Z"/><path class="c" d="M89.83,719.51a62.79,62.79,0,1,0-62-32"/><rect class="a" x="90.27" y="467.98" width="104.68" height="144.19" rx="49.42" transform="translate(261.57 -5.7) rotate(27.09)"/><path class="b" d="M149.48,401.27h62.8a0,0,0,0,1,0,0v94.55a31.4,31.4,0,0,1-31.4,31.4h0a31.4,31.4,0,0,1-31.4-31.4V401.27A0,0,0,0,1,149.48,401.27Z" transform="translate(231.23 -31.44) rotate(27.09)"/><circle class="a" cx="222.59" cy="387.53" r="75.05"/><path class="d" d="M258.09,321.8a75.08,75.08,0,0,0-91.22,14.64A75.07,75.07,0,0,1,218.45,462.5a75.05,75.05,0,0,0,39.64-140.7Z"/><path class="c" d="M1018.29,719.51a62.79,62.79,0,1,1,62-32"/><rect class="a" x="913.18" y="467.98" width="104.68" height="144.19" rx="49.42" transform="translate(2071.06 581.26) rotate(152.91)"/><path class="b" d="M927.25,401.27h0a31.4,31.4,0,0,1,31.4,31.4v94.55a0,0,0,0,1,0,0h-62.8a0,0,0,0,1,0,0V432.67A31.4,31.4,0,0,1,927.25,401.27Z" transform="translate(1964.19 455.34) rotate(152.91)"/><circle class="a" cx="885.53" cy="387.53" r="75.05"/><path class="d" d="M850,321.8a75.09,75.09,0,0,1,91.23,14.64A75.06,75.06,0,0,0,889.68,462.5,75.06,75.06,0,0,1,850,321.8Z"/><path class="b" d="M248.78,940.2c-36.66,0-67-39.85-75.51-99.15-4.56-31.83-2.25-65.19,6.49-94,9.4-31,25.5-53.59,45.32-63.72a51.64,51.64,0,0,1,23.68-5.84H352.29V940.2Z"/><path class="b" d="M351.43,940.2c-21.26,0-38.85-39.85-43.78-99.15-2.64-31.83-1.3-65.19,3.76-94,5.46-31,14.79-53.59,26.28-63.72,4.39-3.87,9-5.84,13.73-5.84s9.33,2,13.75,5.8l49.7,43.83c17.37,15.32,23.38,64,20.23,102-2.44,29.28-10,52.18-20.2,61.28l-49.68,43.82C360.77,938.21,356.13,940.2,351.43,940.2Z"/><path class="e" d="M360.57,699l49.65,43.79c11.19,9.86,17.8,47.41,14.77,83.87-2,24.27-7.83,41.95-14.77,48.13l-49.65,43.79C342,935,322.79,899.19,317.76,838.55s6-123.1,24.57-139.51C348.48,693.62,354.83,694,360.57,699Z"/><path class="b" d="M850.73,940.2c36.67,0,67-39.85,75.51-99.15,4.56-31.83,2.26-65.19-6.48-94-9.41-31-25.5-53.59-45.32-63.72a51.71,51.71,0,0,0-23.68-5.84H747.23V940.2Z"/><path class="b" d="M748.09,940.2c21.25,0,38.84-39.85,43.77-99.15,2.64-31.83,1.31-65.19-3.76-94-5.45-31-14.78-53.59-26.27-63.72-4.39-3.87-9-5.84-13.73-5.84s-9.33,2-13.75,5.8l-49.7,43.83c-17.37,15.32-23.39,64-20.23,102,2.43,29.28,10,52.18,20.19,61.28l49.69,43.82C738.74,938.21,743.38,940.2,748.09,940.2Z"/><path class="e" d="M738.94,699,689.3,742.83c-11.19,9.86-17.81,47.41-14.78,83.87,2,24.27,7.83,41.95,14.78,48.13l49.64,43.79c18.61,16.41,37.78-19.43,42.82-80.07s-6-123.1-24.57-139.51C751,693.62,744.68,694,738.94,699Z"/><path class="a" d="M848.63,451.38a83.81,83.81,0,0,1-.56-45.6C862.82,352.65,853.13,294,853.13,294c-185.07-57.74-300.08-.45-300.08-.45S438.21,235.88,253,293.07c0,0-9.87,58.64,4.72,111.83a83.69,83.69,0,0,1-.7,45.59c-5.14,17.57-10.71,44.5-10.76,78.8-.38,249,306,326.08,306,326.08s306.58-76.15,307-325.16C859.21,495.91,853.72,469,848.63,451.38Z"/><path class="f" d="M552.34,808.87C501.62,793,290.64,715.62,290.92,529.36c0-29.65,4.9-52.42,9-66.31a128.39,128.39,0,0,0,.9-70c-6.2-22.58-6.89-47.13-6.17-65.29,40.49-10.23,80.2-15.37,118.41-15.32,75.67.12,119.86,21,120.3,21.17l20.39,10.23L573,333.52c.1,0,44.35-20.75,120-20.64,38.21.06,77.9,5.32,118.36,15.68.67,18.14-.1,42.71-6.36,65.27a128.23,128.23,0,0,0,.68,70c4,13.91,8.82,36.69,8.78,66.35C814.18,717.24,603.21,793.27,552.34,808.87Z"/><path class="e" d="M610.16,478.76A57.47,57.47,0,1,0,540,534.68L507.71,670.15,552.39,683l44.71-12.71L565.26,534.72A57.47,57.47,0,0,0,610.16,478.76Z"/><path class="f" d="M454.94,131.08a60.64,60.64,0,0,0-60.64,60.64H515.59A60.65,60.65,0,0,0,454.94,131.08Z"/><path class="f" d="M642.38,131.08a60.64,60.64,0,0,0-60.64,60.64H703A60.64,60.64,0,0,0,642.38,131.08Z"/><circle class="f" cx="483.24" cy="229.43" r="11.52"/><circle class="f" cx="528.52" cy="229.43" r="11.52"/><circle class="f" cx="573.81" cy="229.43" r="11.52"/><circle class="f" cx="619.09" cy="229.43" r="11.52"/></svg>