<?xml version="1.0" encoding="UTF-8" standalone="no"?>
<svg
   xmlns:dc="http://purl.org/dc/elements/1.1/"
   xmlns:cc="http://creativecommons.org/ns#"
   xmlns:rdf="http://www.w3.org/1999/02/22-rdf-syntax-ns#"
   xmlns:svg="http://www.w3.org/2000/svg"
   xmlns="http://www.w3.org/2000/svg"
   viewBox="0 0 613.33331 162.66667"
   height="162.66667"
   width="613.33331"
   xml:space="preserve"
   id="svg2"
   version="1.1"><metadata
     id="metadata8"><rdf:RDF><cc:Work
         rdf:about=""><dc:format>image/svg+xml</dc:format><dc:type
           rdf:resource="http://purl.org/dc/dcmitype/StillImage" /></cc:Work></rdf:RDF></metadata><defs
     id="defs6"><clipPath
       id="clipPath18"
       clipPathUnits="userSpaceOnUse"><path
         id="path16"
         d="M 0,122 H 460 V 0 H 0 Z" /></clipPath></defs><g
     transform="matrix(1.3333333,0,0,-1.3333333,0,162.66667)"
     id="g10"><g
       id="g12"><g
         clip-path="url(#clipPath18)"
         id="g14"><g
           transform="translate(147.8857,62.3579)"
           id="g20"><path
             id="path22"
             style="fill:#80716e;fill-opacity:1;fill-rule:nonzero;stroke:none"
             d="m 0,0 c -0.919,0 -1.682,0.052 -2.268,0.156 -0.482,0.085 -0.865,0.24 -1.137,0.46 -0.257,0.207 -0.437,0.482 -0.553,0.841 -0.139,0.433 -0.209,1.022 -0.209,1.751 v 4.004 c 0,2.212 0.442,3.13 0.813,3.512 0.367,0.377 1.247,0.825 3.354,0.825 h 13.194 c 2.273,0 3.254,-0.456 3.676,-0.837 0.404,-0.366 0.886,-1.26 0.886,-3.443 V 0 Z m 24.614,17.457 c -1.141,1.078 -2.658,1.873 -4.508,2.361 -1.778,0.468 -3.989,0.705 -6.574,0.705 H -0.113 c -2.651,0 -4.891,-0.207 -6.659,-0.615 -1.862,-0.429 -3.369,-1.178 -4.478,-2.225 -1.12,-1.056 -1.908,-2.465 -2.344,-4.187 -0.411,-1.624 -0.619,-3.663 -0.619,-6.058 v -4.68 c 0,-1.935 0.244,-3.619 0.726,-5.007 0.507,-1.456 1.345,-2.656 2.491,-3.568 1.119,-0.891 2.578,-1.548 4.337,-1.95 1.693,-0.39 3.762,-0.588 6.152,-0.588 h 18.263 v -1.573 c 0,-0.922 -0.173,-1.569 -0.499,-1.872 -0.242,-0.225 -0.791,-0.492 -2.033,-0.492 H -5.521 c -4.801,0 -8.692,-3.892 -8.692,-8.693 h 30.226 c 4.048,0 7.04,0.848 8.895,2.517 1.884,1.694 2.838,4.417 2.838,8.089 V 7.438 c 0,2.25 -0.23,4.209 -0.683,5.827 -0.475,1.693 -1.299,3.104 -2.449,4.192" /></g><g
           transform="translate(190.3101,72.9795)"
           id="g24"><path
             id="path26"
             style="fill:#80716e;fill-opacity:1;fill-rule:nonzero;stroke:none"
             d="M 0,0 C 0.135,0.457 0.337,0.787 0.62,1.007 0.92,1.243 1.35,1.398 1.897,1.471 2.578,1.56 3.43,1.604 4.43,1.604 h 13.984 c 1.481,0 2.013,-0.249 2.174,-0.355 0.227,-0.152 0.357,-0.616 0.357,-1.275 v -3.04 h -21.19 v 0.728 C -0.245,-1.339 -0.163,-0.553 0,0 M 28.564,7.34 C 27.623,8.157 26.35,8.798 24.779,9.247 23.257,9.682 21.343,9.902 19.09,9.902 H 4.317 C 1.555,9.902 -0.771,9.685 -2.599,9.258 -4.5,8.813 -6.062,8.074 -7.241,7.061 -8.445,6.025 -9.298,4.645 -9.777,2.957 -10.231,1.36 -10.46,-0.61 -10.46,-2.902 V -9.95 c 0,-4.311 1.146,-7.517 3.404,-9.529 2.26,-2.014 5.851,-2.993 10.978,-2.993 h 27.239 c 0,4.521 -3.665,8.186 -8.186,8.186 H 3.922 c -0.923,0 -1.696,0.053 -2.299,0.156 -0.499,0.085 -0.89,0.239 -1.162,0.459 -0.243,0.197 -0.411,0.476 -0.511,0.855 -0.129,0.483 -0.195,1.164 -0.195,2.021 v 0.502 H 31.161 V 0.65 c 0,1.291 -0.186,2.516 -0.552,3.637 -0.388,1.187 -1.077,2.214 -2.045,3.053" /></g><g
           transform="translate(235.9238,72.9795)"
           id="g28"><path
             id="path30"
             style="fill:#80716e;fill-opacity:1;fill-rule:nonzero;stroke:none"
             d="m 0,0 c 0.135,0.457 0.338,0.787 0.62,1.007 0.3,0.236 0.731,0.391 1.277,0.464 0.681,0.089 1.534,0.133 2.534,0.133 h 13.983 c 1.482,0 2.014,-0.249 2.175,-0.355 0.226,-0.152 0.356,-0.616 0.356,-1.275 v -3.04 h -21.19 v 0.728 C -0.245,-1.339 -0.162,-0.553 0,0 M 28.564,7.34 C 27.623,8.157 26.35,8.798 24.779,9.247 23.258,9.682 21.344,9.902 19.091,9.902 H 4.317 C 1.556,9.902 -0.771,9.685 -2.599,9.258 -4.5,8.813 -6.062,8.074 -7.241,7.061 -8.445,6.025 -9.298,4.645 -9.777,2.957 -10.23,1.36 -10.46,-0.61 -10.46,-2.902 V -9.95 c 0,-4.311 1.146,-7.517 3.404,-9.529 2.26,-2.014 5.851,-2.993 10.979,-2.993 h 27.238 c 0,4.521 -3.665,8.186 -8.185,8.186 H 3.923 c -0.924,0 -1.697,0.053 -2.3,0.156 -0.499,0.085 -0.89,0.239 -1.162,0.459 -0.243,0.197 -0.41,0.476 -0.511,0.855 -0.129,0.483 -0.195,1.164 -0.195,2.021 v 0.502 H 31.161 V 0.65 c 0,1.291 -0.185,2.516 -0.552,3.637 -0.388,1.187 -1.077,2.214 -2.045,3.053" /></g><path
           id="path32"
           style="fill:#80716e;fill-opacity:1;fill-rule:nonzero;stroke:none"
           d="m 272.071,65.167 h 20.421 v 8.468 h -20.421 z" /><g
           transform="translate(338.2598,63.5986)"
           id="g34"><path
             id="path36"
             style="fill:#80716e;fill-opacity:1;fill-rule:nonzero;stroke:none"
             d="m 0,0 -7.457,16.436 c -0.551,1.227 -1.234,2.153 -2.031,2.751 -0.834,0.625 -1.966,0.942 -3.364,0.942 -1.451,0 -2.603,-0.345 -3.426,-1.026 -0.749,-0.622 -1.423,-1.503 -2.016,-2.648 l -7.874,-16.46 -5.585,13.066 c -1.612,3.774 -5.321,6.222 -9.425,6.222 h -3.725 L -32.12,-10.35 c 0.469,-1.066 1.095,-1.927 1.859,-2.561 0.822,-0.681 1.993,-1.026 3.483,-1.026 1.312,0 2.446,0.332 3.371,0.984 0.893,0.634 1.609,1.5 2.126,2.574 l 8.239,17.094 7.829,-17.091 c 0.475,-0.993 1.163,-1.835 2.047,-2.503 0.928,-0.702 2.051,-1.058 3.339,-1.058 1.323,0 2.465,0.356 3.394,1.058 0.884,0.668 1.573,1.51 2.056,2.521 L 19,19.283 h -3.704 c -4.036,0 -7.696,-2.368 -9.35,-6.049 z" /></g><g
           transform="translate(398.7969,79.6826)"
           id="g38"><path
             id="path40"
             style="fill:#80716e;fill-opacity:1;fill-rule:nonzero;stroke:none"
             d="m 0,0 c -1.233,1.132 -2.893,1.962 -4.934,2.468 -1.963,0.485 -4.435,0.731 -7.349,0.731 h -16.066 v 7.257 c 0,5.45 -4.765,9.868 -10.214,9.868 v -7.258 -42.241 h 10.214 v 23.342 h 15.84 c 1.214,0 2.237,-0.079 3.04,-0.236 0.686,-0.134 1.216,-0.377 1.574,-0.722 0.363,-0.348 0.628,-0.857 0.792,-1.51 0.188,-0.754 0.284,-1.742 0.284,-2.939 V -29.175 H 3.396 v 18.217 c 0,2.512 -0.249,4.68 -0.738,6.445 C 2.144,-2.663 1.249,-1.144 0,0" /></g><g
           transform="translate(417.2471,50.5078)"
           id="g42"><path
             id="path44"
             style="fill:#80716e;fill-opacity:1;fill-rule:nonzero;stroke:none"
             d="m 0,0 v 0 31.584 h -10.385 v -21.2 C -10.385,4.649 -5.735,0 0,0" /></g><g
           transform="translate(406.8623,98.46)"
           id="g46"><path
             id="path48"
             style="fill:#f08719;fill-opacity:1;fill-rule:nonzero;stroke:none"
             d="m 0,0 v 0 -11.907 h 10.385 v 1.522 C 10.385,-4.649 5.735,0 0,0" /></g><g
           transform="translate(436.416,58.6934)"
           id="g50"><path
             id="path52"
             style="fill:#80716e;fill-opacity:1;fill-rule:nonzero;stroke:none"
             d="m 0,0 19.142,16.62 c 1.067,0.929 1.609,2.107 1.609,3.504 0,1.032 -0.323,1.961 -0.958,2.764 -0.688,0.863 -1.695,1.3 -2.994,1.3 h -23.62 c -4.458,0 -8.073,-3.614 -8.073,-8.072 H 5.865 L -13.91,-0.621 c -1.14,-1.004 -1.717,-2.22 -1.717,-3.613 0,-1.001 0.325,-1.906 0.966,-2.689 0.685,-0.838 1.652,-1.263 2.873,-1.263 h 33.44 v 0.114 C 21.652,-3.614 18.039,0 13.58,0 Z" /></g><g
           transform="translate(103.9614,57.7119)"
           id="g54"><path
             id="path56"
             style="fill:#f08719;fill-opacity:1;fill-rule:nonzero;stroke:none"
             d="m 0,0 v -10.25 -0.7 c 0,-1.139 -1.232,-1.85 -2.218,-1.28 l -39.253,22.724 c -3.895,2.249 -8.693,2.249 -12.587,0 l -39.253,-22.721 c -0.985,-0.57 -2.219,0.141 -2.219,1.28 V -10.25 0 22.68 c 0,4.285 2.286,8.244 5.998,10.387 l 36.177,20.887 V 47.58 c 0,-4.378 -2.336,-8.424 -6.127,-10.613 L -77.885,26.342 C -81.596,24.2 -83.882,20.24 -83.882,15.955 V 6.724 l 28.264,16.318 c 4.859,2.806 10.846,2.806 15.705,0 L -11.647,6.724 v 9.231 c 0,4.285 -2.286,8.245 -5.998,10.388 l -18.402,10.625 c -3.791,2.189 -6.127,6.234 -6.127,10.612 v 6.373 L -5.997,33.067 C -2.286,30.924 0,26.965 0,22.68 Z m -3.162,-24.88 -36.215,-20.906 c -5.191,-2.997 -11.585,-2.997 -16.776,0 l -36.198,20.906 c -0.94,0.544 -0.94,1.901 0,2.444 l 37.965,21.926 c 4.097,2.366 9.145,2.366 13.242,0.001 l 5.25,-3.031 -35.236,-20.149 17.109,-9.879 c 3.872,-2.235 8.641,-2.235 12.512,0 l 17.165,9.911 -12.068,6.96 5.108,2.92 c 4.085,2.336 9.103,2.331 13.184,-0.014 l -0.009,-0.005 14.967,-8.64 c 0.941,-0.543 0.941,-1.901 0,-2.444 m 0.495,64.777 -33.834,19.534 c -6.94,4.007 -15.491,4.007 -22.431,0 L -92.766,39.897 c -5.595,-3.23 -9.109,-9.189 -9.264,-15.628 V 3.288 -17.692 c 0.155,-6.441 3.669,-12.4 9.264,-15.629 l 33.834,-19.534 c 6.94,-4.007 15.491,-4.007 22.431,0 l 33.834,19.534 c 5.159,2.977 8.547,8.276 9.167,14.132 V 3.288 25.766 C 5.88,31.622 2.492,36.919 -2.667,39.897" /></g></g></g></g></svg>