<svg fill="#002a51" viewBox="0 0 210 34" xmlns="http://www.w3.org/2000/svg"><path d="M18.721 0l-5.26 9.06 5.26 9.09 5.28-9.09L18.72 0zM99.66 7.9v.77c.87.45.87 1.93.87 3v15.439c0 1.08.04 2.56-.87 3v.76h8.22v-.77c-.88-.44-.88-1.92-.88-3V7.9h-7.34zm90.93 0v.77c.87.45.871 1.93.871 3v15.439c0 1.08.039 2.56-.871 3v.771h8.21v-.771c-.88-.44-.88-1.92-.88-3v-9.85c1.35-1.18 2.02-1.48 2.9-1.48 1.31 0 1.85.641 1.85 2.181v9.159c0 1.08.03 2.56-.88 3v.771H210v-.771c-.87-.44-.87-1.92-.87-3v-9.18c0-3.25-1.85-5-5.22-5-2.08 0-3.7.67-5.85 2.49h-.14V7.9h-7.33zm-79.74.01v.77c.91.44.88 1.92.88 2.99V26.3c0 1.98-.069 2.32-.509 2.76v.78a44.64 44.64 0 009.69 1.31c6.69 0 9.55-2.66 9.55-8.88v-.4c0-5.92-2.18-8.92-6.39-8.92-2.05 0-3.63.71-5.75 2.49h-.14V7.91h-7.33zm-78.639 4.98a5.25 5.25 0 00-3.13 1 6.57 6.57 0 00-1.712 2.071l-4.992 8.537.023.041-.007.012 5.396 9.34 6.65-11.5 3-5.141a5.33 5.33 0 00-3.09-3.92 5.46 5.46 0 00-2.138-.44zm-9.818 11.66l-.024-.04.008-.012-3.656-6.318L15 24.539l3.72 6.371 3.672-6.36zM15 24.54s-4.82-8.339-4.95-8.549a6.57 6.57 0 00-1.69-2.05l.01-.03a5.25 5.25 0 00-3.13-1 5.46 5.46 0 00-2.14.44A5.33 5.33 0 000 17.28l3 5.14 6.65 11.5L15 24.539zm71.801-11.59c-1.61 0-3.531.1-6.691.3v4.68h.72l2.93-2.42a4.08 4.08 0 012.75-1.15c1.89 0 2.73 1.252 2.73 3.942v1.58l-4.54.908c-4.74.94-6.53 2.46-6.53 5.58v.111c0 3.02 1.8 4.67 5 4.67a9.34 9.34 0 006.12-2.42c.13 1.48 1.351 2.35 3.261 2.35 1.3 0 2.37-.37 5-1.24v-.77c-1.48-.22-1.75-.61-1.75-2.22v-7.78c0-4.47-2.47-6.121-9-6.121zm77.059 0c-5.55 0-8.549 1.951-8.549 5.621 0 2.46 1.32 3.87 5.69 6.09l1.859.94c1.57.77 2 1.28 2 2.22 0 1.28-.8 1.92-2.49 1.92a4.18 4.18 0 01-3-1.15l-2.93-2.42h-.77l-.019 4.72c2.96.2 4.81.3 6.16.3 5.91 0 8.91-1.88 8.91-5.62 0-2.45-1.311-3.87-5.681-6.09l-1.85-.941c-1.53-.77-2-1.28-2-2.18 0-1.29.84-2 2.25-2a3.69 3.69 0 012.56 1.05l2.67 2.18h.77v-4.34c-3.26-.23-4.58-.3-5.58-.3zm18.371 0c-6.69 0-9.42 2.63-9.42 8.88v.44c0 6.26 2.829 8.881 9.629 8.881 1.07 0 2.18-.07 5.92-.3v-4.34h-.78l-2.449 2.29a3.22 3.22 0 01-2.36.94c-2.45 0-3.231-1.86-3.231-7.71s.78-7.67 3.23-7.67a3.19 3.19 0 012.361.95l2.45 2.28h.779v-4.34c-3.33-.23-5.049-.3-6.129-.3zm-121.56.281l1.52 3.57-2.46 6.76-3-7.57c-.41-.95-.21-1.63.53-2v-.74h-9.21v.74c1.08.48 1.64 2 2.08 3l5.87 13.891h2.91l4.27-11.771 4.98 11.771h2.9l5.34-14.291a4.58 4.58 0 012.09-2.53v-.74h-4.31v.74c.74.39.91 1 .54 2l-2.85 7.5-4.2-10.33h-7zm72.631.049v.781c.87.45.87 1.93.87 3v9.09c0 3.25 1.85 5 5.21 5 2.09 0 3.71-.67 5.86-2.49h.128v2.22h7.342v-.77c-.88-.44-.88-1.92-.88-3V13.28h-7.33v.78c.87.45.868 1.93.868 3v9.79c-1.34 1.17-2.018 1.48-2.888 1.48-1.31 0-1.85-.64-1.85-2.19V13.28h-7.33zm-11.92 2.5c1.61 0 2.35.82 2.35 2.82V26c0 2.64-.871 3.641-3.221 3.641a7.06 7.06 0 01-2.33-.41V17.16a5 5 0 013.201-1.38zM89.29 21.06l-.03 6.15a5.08 5.08 0 01-3 1.35c-1.04 0-1.439-.61-1.439-2.29v-.91c0-2.12.7-3.03 2.79-3.73l1.679-.57z"/></svg>