<svg width="1046" height="515" viewBox="0 0 1046 515" fill="none" xmlns="http://www.w3.org/2000/svg">
<path d="M886.919 282.461C950.486 251.972 974.128 250.242 989.01 269.678C1003.92 289.036 966.033 370.778 907.113 364.163C848.193 357.547 886.919 282.461 886.919 282.461Z" fill="#FBAC44" style="fill:#FBAC44;fill:color(display-p3 0.9843 0.6745 0.2667);fill-opacity:1;"/>
<path d="M914.099 270.655C914.147 270.499 914.117 270.319 914.165 270.164C914.064 270.217 914.063 270.217 913.962 270.271C913.578 270.408 913.195 270.546 912.865 270.785C910.899 271.627 908.934 272.469 906.866 273.365C906.177 273.663 905.386 274.016 904.697 274.314C901.431 275.777 898.141 277.319 894.671 278.889C894.61 279.638 894.525 280.464 894.465 281.213C901.35 277.969 907.781 275.097 913.755 272.595C913.857 272.541 913.959 272.487 914.037 272.511C913.918 271.792 914.008 271.224 914.099 270.655ZM914.099 270.655C914.147 270.499 914.117 270.319 914.165 270.164C914.064 270.217 914.063 270.217 913.962 270.271C913.823 270.996 913.762 271.744 913.599 272.547C913.701 272.493 913.803 272.439 913.881 272.463C913.918 271.792 914.008 271.224 914.099 270.655ZM990.603 268.38C977.604 251.402 958.482 250.096 918.381 266.18C917.104 266.724 915.75 267.243 914.474 267.786L914.372 267.84C908.398 270.342 901.89 273.191 894.926 276.41C892.043 277.736 889.137 279.14 886.05 280.573C885.643 280.788 885.289 281.105 885.091 281.471C884.226 283.164 863.578 323.763 876.747 348.468C880.75 355.93 887.41 361.143 896.594 363.981C897.839 364.366 899.186 364.697 900.611 365.053C902.605 365.498 904.725 365.812 906.869 366.049C911.078 366.497 915.151 366.562 919.188 366.19C919.29 366.136 919.446 366.185 919.548 366.131C920.961 365.971 922.273 365.865 923.633 365.603C949.95 361.288 970.669 340.322 982.452 319.578C994.308 298.601 997.659 277.553 990.603 268.38ZM919.846 362.13C919.744 362.184 919.667 362.16 919.589 362.136C915.629 362.532 911.533 362.545 907.347 362.019C904.945 361.788 902.694 361.348 900.545 360.854C890.935 358.566 884.155 353.742 880.313 346.586C868.918 325.244 885.848 288.952 888.34 283.924C890.354 282.927 892.343 282.007 894.333 281.087C901.219 277.843 907.649 274.971 913.623 272.469C913.725 272.415 913.827 272.361 913.905 272.385C915.181 271.842 916.458 271.299 917.632 270.809C957.086 254.61 975.473 255.262 987.384 270.796C993.273 278.499 989.696 298.625 978.879 317.621C967.768 337.294 948.338 357.123 923.776 361.554C922.518 361.762 921.182 361.946 919.846 362.13ZM914.099 270.655C914.147 270.499 914.117 270.319 914.165 270.164C914.064 270.217 914.063 270.217 913.962 270.271C913.823 270.996 913.762 271.744 913.599 272.547C913.701 272.493 913.803 272.439 913.881 272.463C913.918 271.792 914.008 271.224 914.099 270.655Z" fill="#010101" style="fill:#010101;fill:color(display-p3 0.0039 0.0039 0.0039);fill-opacity:1;"/>
<path d="M680.742 220.955L654.884 283.648L646.697 293.31L612.14 282.629C611.984 282.581 611.829 282.533 611.595 282.461C610.739 282.196 609.805 281.908 608.973 281.565C607.596 281.054 606.219 280.544 604.842 280.033C604.687 279.985 604.609 279.961 604.453 279.912C581.987 256.598 573.788 237.607 576.387 218.714C577.161 212.9 579.043 207.086 581.746 201.101C588.538 186.573 609.468 189.205 630.319 196.503C630.786 196.647 631.175 196.767 631.618 196.989C631.618 196.989 631.618 196.989 631.696 197.013C632.163 197.158 632.528 197.356 632.995 197.5C634.294 197.987 635.593 198.474 636.892 198.961C637.203 199.057 637.569 199.255 637.88 199.351C638.401 199.597 638.945 199.766 639.544 200.036C640.376 200.378 641.13 200.697 641.885 201.015C641.962 201.039 642.04 201.063 642.118 201.087C642.507 201.208 642.95 201.43 643.315 201.628C644.746 202.241 646.254 202.877 647.661 203.568C648.026 203.766 648.415 203.886 648.78 204.084C649.014 204.157 649.301 204.331 649.535 204.403C649.822 204.577 650.133 204.673 650.42 204.847C650.941 205.093 651.462 205.34 651.983 205.586C652.737 205.904 653.467 206.3 654.144 206.595C655.029 207.039 655.861 207.382 656.669 207.802C657.268 208.072 657.92 208.444 658.519 208.715C659.561 209.207 660.5 209.753 661.464 210.222C661.542 210.246 661.673 210.372 661.751 210.396C662.559 210.816 663.289 211.212 664.097 211.632C664.307 211.782 664.54 211.855 664.75 212.005C665.115 212.203 665.402 212.377 665.767 212.575L665.845 212.599C674.889 217.27 680.742 220.955 680.742 220.955Z" fill="#FFCD3F" style="fill:#FFCD3F;fill:color(display-p3 1.0000 0.8039 0.2471);fill-opacity:1;"/>
<path d="M663.626 215.92C663.626 215.92 632.085 202.931 612.184 196.695C592.284 190.459 579.666 203.697 579.466 228.619L579.537 229.493L576.388 218.714C577.162 212.9 579.044 207.087 581.825 201.125C592.551 178.008 638.811 198.274 664.069 211.453L663.626 215.92Z" fill="white" style="fill:white;fill:white;fill-opacity:1;"/>
<path d="M683.139 218.714C682.355 218.216 676.113 214.411 667.04 209.56C666.962 209.536 666.962 209.536 666.884 209.512C666.309 209.163 665.711 208.893 665.112 208.623C664.304 208.203 663.496 207.782 662.61 207.338C662.455 207.29 662.323 207.164 662.167 207.116C641.817 196.818 611.545 184.137 593.703 189.45C590.785 190.339 588.339 191.63 586.265 193.376C584.19 195.122 582.588 197.27 581.357 199.874C569.154 226.116 574.718 249.493 602.71 279.205C603.309 279.476 603.907 279.746 604.53 279.938C604.686 279.986 604.764 280.01 604.919 280.059C606.272 280.647 607.649 281.158 609.05 281.591C609.882 281.933 610.738 282.198 611.672 282.487C591.472 262.601 581.233 245.794 579.613 229.519C579.559 229.417 579.583 229.339 579.631 229.183C579.577 229.082 579.601 229.004 579.65 228.848C579.65 228.848 579.674 228.77 579.596 228.746L579.62 228.668C579.62 228.668 579.62 228.668 579.644 228.591C579.173 222.391 579.887 216.217 581.812 209.991C582.678 207.189 583.801 204.381 585.105 201.544C587.074 197.378 590.288 194.705 594.973 193.339C603.062 190.894 614.206 192.633 625.802 196.217C638.177 200.042 651.089 205.994 661.33 211.205C661.408 211.23 661.461 211.331 661.539 211.356C662.347 211.776 663.233 212.22 664.041 212.64C664.251 212.79 664.484 212.863 664.771 213.037C665.059 213.211 665.292 213.283 665.579 213.457C672.175 216.945 677.238 219.874 679.536 221.267L654.412 282.14L645.348 292.981L649.551 294.28L657.763 284.54C657.889 284.408 658.039 284.199 658.087 284.043L683.944 221.35C684.281 220.26 684.001 219.236 683.139 218.714Z" fill="#010101" style="fill:#010101;fill:color(display-p3 0.0039 0.0039 0.0039);fill-opacity:1;"/>
<path d="M853.454 447.99L620.079 285.083C621.129 283.617 622.179 282.151 623.205 280.763C623.655 280.134 624.183 279.53 624.633 278.902C631.028 270.902 638.02 264.281 644.853 259.828L661.762 240.156C659.281 231.63 659.25 223.179 660.649 215.341C660.698 215.186 660.692 214.928 660.74 214.772C660.921 213.635 661.204 212.443 661.463 211.329C661.559 211.018 661.578 210.683 661.698 210.294C661.933 209.258 662.246 208.246 662.534 207.312C663.467 204.019 664.687 200.9 665.936 197.961C671.33 185.474 678.259 177.128 678.259 177.128C687.452 139.383 705.917 115.504 730.005 102.4C730.616 102.077 731.329 101.701 731.941 101.378C732.246 101.217 732.552 101.055 732.858 100.894C733.445 100.649 733.978 100.302 734.566 100.058C734.668 100.004 734.769 99.95 734.847 99.9741C735.536 99.6755 736.226 99.3769 736.939 99.0005C737.22 98.917 737.448 98.7316 737.73 98.6481C738.317 98.4033 738.904 98.1585 739.492 97.9137C739.671 97.884 739.797 97.7524 739.977 97.7226C740.564 97.4778 741.151 97.233 741.715 97.066C741.996 96.9825 742.302 96.8212 742.584 96.7377C743.351 96.4632 744.016 96.2424 744.783 95.9679C744.884 95.9141 744.884 95.9141 744.986 95.8603C745.753 95.5858 746.598 95.3353 747.365 95.0608L747.467 95.007C748.234 94.7325 748.977 94.5358 749.822 94.2853C750.025 94.1778 750.283 94.1721 750.487 94.0646C751.23 93.8679 751.895 93.6471 752.614 93.5282C752.691 93.5523 752.793 93.4985 752.793 93.4985C753.638 93.248 754.459 93.0754 755.382 92.849L755.483 92.7951C756.304 92.6225 757.227 92.3961 758.048 92.2235C758.946 92.0749 759.869 91.8485 760.767 91.6999C761.666 91.5513 762.565 91.4027 763.541 91.2781C763.9 91.2187 764.26 91.1592 764.619 91.0998C765.158 91.0107 765.775 90.9456 766.315 90.8564C767.291 90.7319 768.19 90.5833 769.142 90.5366C770.118 90.412 770.993 90.3413 771.945 90.2946C772.898 90.2479 773.874 90.1233 774.826 90.0766C775.779 90.0299 776.731 89.9832 777.683 89.9365C778.636 89.8898 779.588 89.8431 780.618 89.8204C781.571 89.7737 782.499 89.8049 783.451 89.7582C783.553 89.7044 783.709 89.7525 783.889 89.7228C784.739 89.7299 785.589 89.7369 786.44 89.744C786.518 89.768 786.697 89.7383 786.775 89.7624C787.548 89.7454 788.297 89.8062 789.069 89.7893C789.249 89.7595 789.405 89.8076 789.584 89.7779C790.513 89.809 791.441 89.8402 792.369 89.8713C793.196 89.9562 793.968 89.9392 794.795 90.0241C795.208 90.0665 795.699 90.1331 796.136 90.0977C796.394 90.092 796.627 90.1642 796.885 90.1585C797.891 90.2137 798.951 90.3708 799.957 90.426C800.137 90.3962 800.37 90.4684 800.526 90.5165C801.196 90.5533 801.843 90.6679 802.592 90.7287L802.67 90.7528C803.34 90.7896 803.909 90.8802 804.556 90.9948C804.634 91.0188 804.712 91.0429 804.813 90.9891C805.484 91.0259 806.209 91.1646 806.855 91.2792C807.346 91.3457 807.837 91.4122 808.329 91.4787C810.113 91.7745 811.921 91.9924 813.784 92.3122C814.586 92.4749 815.412 92.5598 816.137 92.6984C816.55 92.7409 816.862 92.8371 817.275 92.8795C818.155 93.0663 819.035 93.2531 819.939 93.3621C822.658 93.9465 825.298 94.5068 828.095 95.1153C828.795 95.3318 829.52 95.4705 830.244 95.6091C830.969 95.7478 831.669 95.9643 832.292 96.1568C833.328 96.3917 834.339 96.7044 835.375 96.9393C841.829 98.6784 847.882 100.89 853.454 103.55C874.62 113.418 890.118 129.207 900.502 149.129C915.81 178.502 920.007 217.06 915.144 259.554C915.12 259.631 915.12 259.631 915.096 259.709C914.793 262.344 914.514 264.901 914.109 267.59C914.024 268.416 913.886 269.141 913.801 269.967C913.662 270.692 913.601 271.44 913.439 272.243C913.282 273.303 913.124 274.363 912.967 275.422L915.611 325.352L919.251 354.956L919.814 359.479C919.729 360.305 919.746 361.078 919.662 361.904C919.625 362.575 919.564 363.323 919.527 363.994C919.49 364.665 919.454 365.336 919.417 366.006C919.274 370.055 853.944 444.475 853.454 447.99Z" fill="#FFCD3F" style="fill:#FFCD3F;fill:color(display-p3 1.0000 0.8039 0.2471);fill-opacity:1;"/>
<path d="M633.683 274.451L633.659 274.529C631.013 278.401 628.45 282.554 626.073 286.935L620.158 285.107C621.208 283.641 622.258 282.175 623.283 280.787C623.733 280.158 624.261 279.554 624.711 278.926L624.915 278.818L633.683 274.451Z" fill="white" style="fill:white;fill:white;fill-opacity:1;"/>
<path d="M918.324 377.263L900.423 371.73C900.528 369.461 900.608 367.269 900.611 365.053C900.648 364.382 900.607 363.687 900.566 362.992C900.525 362.297 900.562 361.627 900.545 360.854C899.741 333.662 891.861 308.119 894.333 281.087C894.394 280.338 894.479 279.512 894.54 278.763C894.6 278.015 894.685 277.188 894.848 276.386C898.724 242.881 906.229 190.46 891.032 149.696C886.43 137.274 879.611 125.958 869.974 116.584C864.865 111.595 858.893 107.191 852.112 103.475L851.256 103.211L853.615 103.854C874.781 113.722 890.279 129.511 900.663 149.433C915.97 178.806 920.168 217.364 915.304 259.858C915.28 259.935 915.28 259.935 915.256 260.013C914.954 262.648 914.675 265.205 914.27 267.894C914.185 268.72 914.047 269.445 913.962 270.271C913.823 270.996 913.762 271.744 913.599 272.547C913.442 273.607 913.285 274.667 913.128 275.726L915.772 325.656L919.412 355.26L919.975 359.783C919.89 360.609 919.907 361.382 919.822 362.208C919.785 362.879 919.725 363.627 919.688 364.298C919.651 364.969 919.614 365.64 919.578 366.311C919.273 370.053 918.813 373.748 918.324 377.263Z" fill="#FBAC44" style="fill:#FBAC44;fill:color(display-p3 0.9843 0.6745 0.2667);fill-opacity:1;"/>
<path d="M820.047 93.5647C815.247 95.577 806.459 96.6978 791.894 96.3738C720.198 94.6778 696.104 146.149 687.907 182.326C687.907 182.326 671.55 191.936 664.301 217.321L666.038 197.906C671.432 185.419 678.361 177.073 678.361 177.073C687.554 139.328 706.019 115.449 730.107 102.345C755.393 88.6733 786.815 86.8744 820.047 93.5647Z" fill="white" style="fill:white;fill:white;fill-opacity:1;"/>
<path d="M883.002 418.491L634.502 328.991C658.122 292.295 695.501 231.656 789.063 260.574C882.624 289.492 884.207 374.867 883.002 418.491Z" fill="#FFD56C" style="fill:#FFD56C;fill:color(display-p3 1.0000 0.8353 0.4235);fill-opacity:1;"/>
<path d="M637.167 270.073C635.937 271.569 634.809 273.011 633.682 274.453L633.657 274.531C630.574 278.438 627.622 282.471 624.826 286.552L620.078 285.085C621.128 283.619 622.256 282.177 623.36 280.813C623.912 280.131 624.44 279.526 624.991 278.844C628.284 275.087 631.918 271.606 636.001 268.605C636.432 268.312 637.025 268.324 637.396 268.78C637.431 269.217 637.443 269.732 637.167 270.073Z" fill="#010101" style="fill:#010101;fill:color(display-p3 0.0039 0.0039 0.0039);fill-opacity:1;"/>
<path d="M922.37 378.518L918.012 377.171C918.217 375.955 918.344 374.716 918.447 373.554L918.95 369.446L919.163 366.272L919.219 365.266C919.237 364.93 919.255 364.595 919.274 364.259C919.311 363.589 919.449 362.864 919.486 362.193C919.504 361.858 919.523 361.523 919.619 361.211L919.403 357.222C919.361 356.527 919.374 355.934 919.333 355.24C919.234 353.077 919.315 350.885 919.395 348.693C919.438 348.28 919.792 347.963 920.205 348.006C920.54 348.024 920.726 348.252 920.809 348.534C921.668 351.272 922.347 354.04 922.949 356.784L923.329 358.862L923.508 359.941C923.567 360.3 923.675 360.504 923.692 361.276C923.644 361.432 923.697 361.534 923.673 361.612C923.69 362.384 923.654 363.055 923.617 363.726C923.604 364.319 923.567 364.99 923.555 365.583C923.53 365.66 923.53 365.66 923.584 365.762C923.511 367.104 923.413 368.523 923.315 369.942L922.843 374.23C922.769 375.572 922.57 377.045 922.37 378.518Z" fill="#010101" style="fill:#010101;fill:color(display-p3 0.0039 0.0039 0.0039);fill-opacity:1;"/>
<path d="M660.491 222.199C659.983 211.98 663.086 201.94 667.655 192.95C669.901 188.443 672.512 184.134 675.512 179.945L676.664 178.426L677.641 177.193L677.617 177.271C677.617 177.271 677.593 177.349 677.665 177.115L677.93 176.259L678.405 174.445C679.073 172.008 679.639 169.625 680.463 167.237C683.422 157.663 687.315 148.379 692.327 139.611C697.315 130.921 703.446 122.67 710.87 115.755C725.532 101.699 744.924 93.0273 764.776 90.0399C774.738 88.4294 784.753 88.0289 794.712 88.6345C804.696 89.1622 814.57 90.5942 824.354 92.5951L831.605 94.2393C834.042 94.9072 836.425 95.4732 838.862 96.1411C843.711 97.5548 848.411 99.1778 853.068 101.214C862.328 105.185 871.024 110.43 878.844 116.855C886.562 123.333 893.224 131.02 898.819 139.4C904.313 147.834 908.56 156.991 911.884 166.374C918.484 185.297 920.932 205.238 921.212 225.021C921.302 234.939 920.876 244.869 919.905 254.63C919.42 259.511 918.833 264.445 918.09 269.332C917.679 271.763 917.191 274.17 916.781 276.601C916.738 277.014 916.709 276.835 916.69 277.17L916.659 278.098L916.597 279.955C916.571 281.141 916.6 282.428 916.55 283.692C916.538 284.285 916.034 284.811 915.363 284.775C914.848 284.786 914.375 284.384 914.286 283.845C914.156 282.611 913.948 281.353 913.794 280.197L913.598 278.346L913.528 277.471C913.522 277.214 913.529 276.363 913.577 276.208C913.832 273.729 914.062 271.327 914.395 268.872C914.958 264.015 915.521 259.159 915.905 254.332C916.773 244.624 917.151 234.85 916.936 225.064C916.535 205.67 913.889 186.093 907.33 167.866C904.089 158.764 899.878 150.044 894.6 142.018C889.219 134.045 882.85 126.79 875.449 120.666C868.048 114.541 859.747 109.673 850.906 106.003C846.458 104.117 841.89 102.619 837.274 101.278C834.915 100.634 832.532 100.068 830.251 99.4483L823.156 97.8521C813.629 95.8456 804.066 94.5098 794.418 94.0005C784.77 93.4911 775.115 93.8322 765.59 95.4073C746.636 98.2461 728.496 106.452 714.692 119.665C700.81 132.854 691.558 150.373 685.881 168.741C685.082 171.052 684.54 173.357 683.896 175.716L683.445 177.452L683.18 178.308C683.156 178.386 683.036 178.775 682.939 179.086C682.843 179.398 682.669 179.685 682.495 179.972L680.167 183.09C677.419 187.015 674.958 191.115 672.809 195.311C668.54 203.882 665.282 212.766 662.964 222.196C662.772 222.819 662.113 223.297 661.49 223.104C660.951 223.194 660.58 222.738 660.491 222.199Z" fill="#010101" style="fill:#010101;fill:color(display-p3 0.0039 0.0039 0.0039);fill-opacity:1;"/>
<path d="M826.395 235.787C824.907 243.086 809.199 241.215 790.224 237.226C771.249 233.237 756.102 228.726 757.669 221.451C759.157 214.152 776.727 206.963 795.702 210.952C814.701 214.863 827.86 228.566 826.395 235.787Z" fill="#F79545" style="fill:#F79545;fill:color(display-p3 0.9686 0.5843 0.2706);fill-opacity:1;"/>
<path d="M719.817 192.188C719.997 187.468 721.566 182.667 724.932 178.676C726.641 176.732 728.817 174.932 731.52 173.636C734.301 172.364 737.632 171.517 741.53 171.87C743.441 172.034 745.411 172.557 747.284 173.392C749.08 174.203 750.779 175.325 752.12 176.507C754.776 178.948 756.204 181.777 757.033 184.335C757.916 186.996 758.074 189.517 758.023 191.889C757.948 194.338 757.508 196.59 756.913 198.793C756.606 200.062 754.946 200.743 753.389 200.262C752.066 199.853 751.115 198.792 751.092 197.762L751.116 197.684C750.894 193.437 750.439 189.118 748.892 185.571C748.08 183.785 747.117 182.208 745.807 181.206C745.203 180.679 744.55 180.306 743.874 180.012C743.173 179.796 742.473 179.579 741.724 179.518C738.598 179.149 734.667 180.833 731.891 183.471C729.037 186.084 727.002 189.633 725.566 193.453L725.542 193.531C725.079 194.752 723.467 195.277 721.934 194.718C720.611 194.309 719.816 193.296 719.817 192.188Z" fill="#010101" style="fill:#010101;fill:color(display-p3 0.0039 0.0039 0.0039);fill-opacity:1;"/>
<path d="M870.72 222.034C869.953 217.619 868.701 213.395 866.406 209.786C864.188 206.202 860.772 203.185 857.587 202.456C856.808 202.216 856.036 202.233 855.365 202.196C854.646 202.315 853.927 202.434 853.238 202.732C851.806 203.227 850.415 204.418 849.209 205.835C846.852 208.773 845.343 212.826 843.967 217.005L843.942 217.083C843.558 218.328 841.922 218.931 840.443 218.474C839.198 218.089 838.402 217.076 838.38 216.045C838.17 211.206 838.782 206.194 841.566 201.597C842.959 199.299 845.1 197.062 848.288 195.575C849.816 194.768 851.715 194.417 853.644 194.246C855.627 194.177 857.639 194.287 859.507 194.864C863.267 195.941 866.379 198.011 868.694 200.176C871.063 202.443 872.742 205.009 873.829 207.562C876.158 212.715 876.325 217.968 875.14 222.632C874.905 223.668 873.73 224.158 872.461 223.851C871.503 223.64 870.869 222.932 870.72 222.034Z" fill="#010101" style="fill:#010101;fill:color(display-p3 0.0039 0.0039 0.0039);fill-opacity:1;"/>
<path d="M788.683 109.52C783.584 71.2418 805.952 85.0047 805.952 85.0047C819.602 45.0258 879.941 66.3895 832.059 114.268L788.683 109.52Z" fill="#FFCD3F" style="fill:#FFCD3F;fill:color(display-p3 1.0000 0.8039 0.2471);fill-opacity:1;"/>
<path d="M786.812 109.717C785.49 106.466 785.023 102.961 784.982 99.3302C784.787 95.7806 785.173 92.023 786.185 88.3296C786.595 87.4224 787.041 86.3972 787.451 85.4899C787.978 84.6192 788.778 83.7034 789.46 82.7511C790.342 81.9897 791.223 81.2282 792.304 80.6577C793.349 80.2051 794.548 79.6711 795.601 79.6089C797.934 79.167 800.013 79.5509 801.936 80.0163C803.978 80.5182 805.557 81.2646 807.416 82.3562L802.921 83.9391C805.619 75.2098 811.648 66.9931 820.658 62.9287C825.027 60.919 830.048 60.1447 834.904 60.7409C839.796 61.2191 844.65 63.4947 848.249 67.321C851.73 71.1108 853.566 76.4598 853.478 81.3435C853.39 86.2272 852.086 90.8643 850.147 95.0466C848.09 99.1925 845.752 102.993 842.979 106.53C841.652 108.316 840.125 109.912 838.597 111.508C836.989 112.949 835.262 114.354 833.336 115.568C832.41 116.057 831.312 115.847 830.823 114.92C830.497 114.303 830.443 113.64 830.743 113.086L830.78 112.969C831.79 110.955 833.081 109.286 834.254 107.581C835.427 105.876 836.8 104.361 837.973 102.656C840.401 99.4006 842.512 95.9174 844.268 92.3249C845.907 88.6959 846.919 85.0025 846.878 81.3714C846.955 77.7768 845.634 74.5253 843.431 72.0353C841.192 69.6632 837.836 67.9795 834.35 67.5484C830.747 67.0809 827.088 67.63 823.646 69.1507C820.203 70.6714 817.169 72.9642 814.732 75.8296C812.296 78.6951 810.421 82.2511 809.019 85.953L808.982 86.071C808.354 87.686 806.574 88.4281 805.076 87.8362C804.959 87.7997 804.723 87.7268 804.641 87.5724C802.31 86.3349 799.206 85.5049 797.145 85.9017C795.002 86.144 793.593 87.7762 792.637 90.4529C791.798 93.1661 791.241 96.2246 791.273 99.4653C791.187 102.67 791.61 105.902 790.943 109.314L790.906 109.432C790.732 110.412 789.733 111.137 788.635 110.927C787.5 110.835 787.02 110.299 786.812 109.717Z" fill="#010101" style="fill:#010101;fill:color(display-p3 0.0039 0.0039 0.0039);fill-opacity:1;"/>
<path d="M62.5 122.5H515H605C638.137 122.5 665 149.363 665 182.5V278C665 311.137 691.863 338 725 338H918C951.137 338 978 364.863 978 398V452C978 485.137 951.137 512 918 512H62.5C29.3629 512 2.5 485.137 2.5 452V182.5C2.5 149.363 29.3629 122.5 62.5 122.5Z" fill="url(#paint0_linear_16537_14778)" stroke="black" style="stroke:black;stroke:black;stroke-opacity:1;" stroke-width="5"/>
<path d="M132.36 341.92C117.64 341.92 104.68 339.04 93.48 333.28C82.44 327.52 73.88 319.68 67.8 309.76C61.72 299.68 58.68 288.24 58.68 275.44C58.68 262.48 61.64 251.04 67.56 241.12C73.64 231.04 81.88 223.2 92.28 217.6C102.68 211.84 114.44 208.96 127.56 208.96C140.2 208.96 151.56 211.68 161.64 217.12C171.88 222.4 179.96 230.08 185.88 240.16C191.8 250.08 194.76 262 194.76 275.92C194.76 277.36 194.68 279.04 194.52 280.96C194.36 282.72 194.2 284.4 194.04 286H89.16V264.16H174.36L159.96 270.64C159.96 263.92 158.6 258.08 155.88 253.12C153.16 248.16 149.4 244.32 144.6 241.6C139.8 238.72 134.2 237.28 127.8 237.28C121.4 237.28 115.72 238.72 110.76 241.6C105.96 244.32 102.2 248.24 99.48 253.36C96.76 258.32 95.4 264.24 95.4 271.12V276.88C95.4 283.92 96.92 290.16 99.96 295.6C103.16 300.88 107.56 304.96 113.16 307.84C118.92 310.56 125.64 311.92 133.32 311.92C140.2 311.92 146.2 310.88 151.32 308.8C156.6 306.72 161.4 303.6 165.72 299.44L185.64 321.04C179.72 327.76 172.28 332.96 163.32 336.64C154.36 340.16 144.04 341.92 132.36 341.92ZM298.166 208.96C308.406 208.96 317.526 211.04 325.526 215.2C333.686 219.2 340.086 225.44 344.726 233.92C349.366 242.24 351.686 252.96 351.686 266.08V340H314.246V271.84C314.246 261.44 311.926 253.76 307.286 248.8C302.806 243.84 296.406 241.36 288.086 241.36C282.166 241.36 276.806 242.64 272.006 245.2C267.366 247.6 263.686 251.36 260.966 256.48C258.406 261.6 257.126 268.16 257.126 276.16V340H219.686V210.88H255.446V246.64L248.726 235.84C253.366 227.2 260.006 220.56 268.646 215.92C277.286 211.28 287.126 208.96 298.166 208.96ZM438.424 341.92C423.224 341.92 411.384 338.08 402.904 330.4C394.424 322.56 390.184 310.96 390.184 295.6V182.32H427.624V295.12C427.624 300.56 429.064 304.8 431.944 307.84C434.824 310.72 438.744 312.16 443.704 312.16C449.624 312.16 454.664 310.56 458.824 307.36L468.904 333.76C465.064 336.48 460.424 338.56 454.984 340C449.704 341.28 444.184 341.92 438.424 341.92ZM370.264 242.56V213.76H459.784V242.56H370.264ZM550.016 341.92C535.296 341.92 522.336 339.04 511.136 333.28C500.096 327.52 491.536 319.68 485.456 309.76C479.376 299.68 476.336 288.24 476.336 275.44C476.336 262.48 479.296 251.04 485.216 241.12C491.296 231.04 499.536 223.2 509.936 217.6C520.336 211.84 532.096 208.96 545.216 208.96C557.856 208.96 569.216 211.68 579.296 217.12C589.536 222.4 597.616 230.08 603.536 240.16C609.456 250.08 612.416 262 612.416 275.92C612.416 277.36 612.336 279.04 612.176 280.96C612.016 282.72 611.856 284.4 611.696 286H506.816V264.16H592.016L577.616 270.64C577.616 263.92 576.256 258.08 573.536 253.12C570.816 248.16 567.056 244.32 562.256 241.6C557.456 238.72 551.856 237.28 545.456 237.28C539.056 237.28 533.376 238.72 528.416 241.6C523.616 244.32 519.856 248.24 517.136 253.36C514.416 258.32 513.056 264.24 513.056 271.12V276.88C513.056 283.92 514.576 290.16 517.616 295.6C520.816 300.88 525.216 304.96 530.816 307.84C536.576 310.56 543.296 311.92 550.976 311.92C557.856 311.92 563.856 310.88 568.976 308.8C574.256 306.72 579.056 303.6 583.376 299.44L603.296 321.04C597.376 327.76 589.936 332.96 580.976 336.64C572.016 340.16 561.696 341.92 550.016 341.92Z" fill="white" style="fill:white;fill:white;fill-opacity:1;"/>
<path d="M60.9275 382.8H85.9835C92.3835 382.8 97.8235 384.976 102.304 389.328C106.72 393.68 108.927 399.024 108.927 405.36C108.927 411.696 106.72 417.04 102.304 421.392C97.8235 425.744 92.3835 427.92 85.9835 427.92H74.1755V450H60.9275V382.8ZM74.1755 415.536H85.9835C88.7995 415.536 91.1355 414.576 92.9915 412.656C94.8475 410.672 95.7755 408.24 95.7755 405.36C95.7755 402.416 94.8475 399.984 92.9915 398.064C91.1355 396.144 88.7995 395.184 85.9835 395.184H74.1755V415.536ZM128.329 402V410.256C129.417 407.248 131.273 404.976 133.897 403.44C136.521 401.84 139.529 401.04 142.921 401.04V414.864C139.145 414.352 135.753 415.12 132.745 417.168C129.801 419.152 128.329 422.448 128.329 427.056V450H115.945V402H128.329ZM156.308 396.24C154.26 396.24 152.468 395.504 150.932 394.032C149.46 392.496 148.724 390.704 148.724 388.656C148.724 386.608 149.46 384.816 150.932 383.28C152.468 381.744 154.26 380.976 156.308 380.976C158.42 380.976 160.212 381.744 161.684 383.28C163.22 384.816 163.988 386.608 163.988 388.656C163.988 390.704 163.22 392.496 161.684 394.032C160.212 395.504 158.42 396.24 156.308 396.24ZM162.548 450H150.164V402H162.548V450ZM193.755 435.6L205.467 402H219.099L200.859 450H186.747L168.507 402H182.139L193.755 435.6ZM259.675 407.664V402H272.059V450H259.675V444.336C255.963 449.008 250.747 451.344 244.027 451.344C237.627 451.344 232.123 448.912 227.515 444.048C222.971 439.12 220.699 433.104 220.699 426C220.699 418.96 222.971 412.976 227.515 408.048C232.123 403.12 237.627 400.656 244.027 400.656C250.747 400.656 255.963 402.992 259.675 407.664ZM236.827 435.792C239.323 438.288 242.491 439.536 246.331 439.536C250.171 439.536 253.339 438.288 255.835 435.792C258.395 433.232 259.675 429.968 259.675 426C259.675 422.032 258.395 418.8 255.835 416.304C253.339 413.744 250.171 412.464 246.331 412.464C242.491 412.464 239.323 413.744 236.827 416.304C234.331 418.8 233.083 422.032 233.083 426C233.083 429.968 234.331 433.232 236.827 435.792ZM306.137 451.344C298.905 451.344 292.857 448.912 287.993 444.048C283.193 439.184 280.793 433.168 280.793 426C280.793 418.832 283.193 412.816 287.993 407.952C292.857 403.088 298.905 400.656 306.137 400.656C310.809 400.656 315.065 401.776 318.905 404.016C322.745 406.256 325.657 409.264 327.641 413.04L316.985 419.28C316.025 417.296 314.553 415.728 312.569 414.576C310.649 413.424 308.473 412.848 306.041 412.848C302.329 412.848 299.257 414.096 296.825 416.592C294.393 419.024 293.177 422.16 293.177 426C293.177 429.712 294.393 432.848 296.825 435.408C299.257 437.84 302.329 439.056 306.041 439.056C308.537 439.056 310.745 438.512 312.665 437.424C314.649 436.272 316.121 434.704 317.081 432.72L327.833 438.864C325.721 442.704 322.713 445.744 318.809 447.984C314.969 450.224 310.745 451.344 306.137 451.344ZM355.398 434.256L366.054 402H379.302L361.83 450C359.334 456.912 356.006 461.904 351.846 464.976C347.75 468.112 342.63 469.52 336.486 469.2V457.68C339.75 457.744 342.374 457.04 344.358 455.568C346.342 454.096 347.91 451.728 349.062 448.464L329.382 402H342.918L355.398 434.256ZM379.357 436.752H392.797L385.597 463.44H375.517L379.357 436.752ZM480.283 400.656C485.787 400.656 490.171 402.448 493.435 406.032C496.763 409.616 498.427 414.416 498.427 420.432V450H486.043V421.296C486.043 418.416 485.339 416.176 483.931 414.576C482.523 412.976 480.539 412.176 477.979 412.176C475.163 412.176 472.955 413.104 471.355 414.96C469.819 416.816 469.051 419.504 469.051 423.024V450H456.667V421.296C456.667 418.416 455.963 416.176 454.555 414.576C453.147 412.976 451.163 412.176 448.603 412.176C445.851 412.176 443.643 413.136 441.979 415.056C440.379 416.912 439.579 419.568 439.579 423.024V450H427.195V402H439.579V407.088C442.459 402.8 446.907 400.656 452.923 400.656C458.875 400.656 463.227 402.96 465.979 407.568C469.115 402.96 473.883 400.656 480.283 400.656ZM545.425 407.664V402H557.809V450H545.425V444.336C541.713 449.008 536.497 451.344 529.777 451.344C523.377 451.344 517.873 448.912 513.265 444.048C508.721 439.12 506.449 433.104 506.449 426C506.449 418.96 508.721 412.976 513.265 408.048C517.873 403.12 523.377 400.656 529.777 400.656C536.497 400.656 541.713 402.992 545.425 407.664ZM522.577 435.792C525.073 438.288 528.241 439.536 532.081 439.536C535.921 439.536 539.089 438.288 541.585 435.792C544.145 433.232 545.425 429.968 545.425 426C545.425 422.032 544.145 418.8 541.585 416.304C539.089 413.744 535.921 412.464 532.081 412.464C528.241 412.464 525.073 413.744 522.577 416.304C520.081 418.8 518.833 422.032 518.833 426C518.833 429.968 520.081 433.232 522.577 435.792ZM605.423 407.664V382.8H617.807V450H605.423V444.336C601.775 449.008 596.591 451.344 589.871 451.344C583.407 451.344 577.871 448.912 573.263 444.048C568.719 439.12 566.447 433.104 566.447 426C566.447 418.96 568.719 412.976 573.263 408.048C577.871 403.12 583.407 400.656 589.871 400.656C596.591 400.656 601.775 402.992 605.423 407.664ZM582.575 435.792C585.199 438.288 588.399 439.536 592.175 439.536C596.015 439.536 599.183 438.288 601.679 435.792C604.175 433.232 605.423 429.968 605.423 426C605.423 422.032 604.175 418.8 601.679 416.304C599.183 413.744 596.015 412.464 592.175 412.464C588.335 412.464 585.135 413.744 582.575 416.304C580.079 418.8 578.831 422.032 578.831 426C578.831 429.968 580.079 433.232 582.575 435.792ZM675.789 431.088H639.597C641.197 437.104 645.709 440.112 653.133 440.112C657.869 440.112 661.453 438.512 663.885 435.312L673.869 441.072C669.133 447.92 662.157 451.344 652.941 451.344C645.005 451.344 638.637 448.944 633.837 444.144C629.037 439.344 626.637 433.296 626.637 426C626.637 418.832 629.005 412.816 633.741 407.952C638.413 403.088 644.493 400.656 651.981 400.656C659.085 400.656 664.877 403.088 669.357 407.952C673.965 412.816 676.269 418.832 676.269 426C676.269 427.344 676.109 429.04 675.789 431.088ZM639.405 421.488H663.885C663.181 418.352 661.741 415.952 659.565 414.288C657.453 412.624 654.925 411.792 651.981 411.792C648.653 411.792 645.901 412.656 643.725 414.384C641.549 416.048 640.109 418.416 639.405 421.488ZM755.57 431.088H719.378C720.978 437.104 725.49 440.112 732.914 440.112C737.65 440.112 741.234 438.512 743.666 435.312L753.65 441.072C748.914 447.92 741.938 451.344 732.722 451.344C724.786 451.344 718.418 448.944 713.618 444.144C708.818 439.344 706.418 433.296 706.418 426C706.418 418.832 708.786 412.816 713.522 407.952C718.194 403.088 724.274 400.656 731.762 400.656C738.866 400.656 744.658 403.088 749.138 407.952C753.746 412.816 756.05 418.832 756.05 426C756.05 427.344 755.89 429.04 755.57 431.088ZM719.186 421.488H743.666C742.962 418.352 741.522 415.952 739.346 414.288C737.234 412.624 734.706 411.792 731.762 411.792C728.434 411.792 725.682 412.656 723.506 414.384C721.33 416.048 719.89 418.416 719.186 421.488ZM800.8 407.664V402H813.184V450H800.8V444.336C797.088 449.008 791.872 451.344 785.152 451.344C778.752 451.344 773.248 448.912 768.64 444.048C764.096 439.12 761.824 433.104 761.824 426C761.824 418.96 764.096 412.976 768.64 408.048C773.248 403.12 778.752 400.656 785.152 400.656C791.872 400.656 797.088 402.992 800.8 407.664ZM777.952 435.792C780.448 438.288 783.616 439.536 787.456 439.536C791.296 439.536 794.464 438.288 796.96 435.792C799.52 433.232 800.8 429.968 800.8 426C800.8 422.032 799.52 418.8 796.96 416.304C794.464 413.744 791.296 412.464 787.456 412.464C783.616 412.464 780.448 413.744 777.952 416.304C775.456 418.8 774.208 422.032 774.208 426C774.208 429.968 775.456 433.232 777.952 435.792ZM835.463 415.632C835.463 417.68 838.375 419.44 844.199 420.912C846.247 421.36 848.103 421.904 849.767 422.544C851.431 423.12 853.095 423.984 854.759 425.136C856.487 426.224 857.831 427.696 858.791 429.552C859.751 431.408 860.231 433.552 860.231 435.984C860.231 440.912 858.375 444.72 854.663 447.408C850.951 450.032 846.375 451.344 840.935 451.344C831.079 451.344 824.359 447.536 820.775 439.92L831.527 433.872C832.999 438.032 836.135 440.112 840.935 440.112C845.351 440.112 847.559 438.736 847.559 435.984C847.559 433.936 844.647 432.176 838.823 430.704C836.647 430.128 834.791 429.552 833.255 428.976C831.719 428.4 830.055 427.568 828.263 426.48C826.471 425.328 825.095 423.888 824.135 422.16C823.239 420.368 822.791 418.288 822.791 415.92C822.791 411.184 824.519 407.472 827.975 404.784C831.495 402.032 835.847 400.656 841.031 400.656C844.935 400.656 848.487 401.552 851.687 403.344C854.887 405.072 857.415 407.568 859.271 410.832L848.711 416.592C847.175 413.328 844.615 411.696 841.031 411.696C839.431 411.696 838.087 412.08 836.999 412.848C835.975 413.552 835.463 414.48 835.463 415.632ZM886.867 434.256L897.523 402H910.771L893.299 450C890.803 456.912 887.475 461.904 883.315 464.976C879.219 468.112 874.099 469.52 867.955 469.2V457.68C871.219 457.744 873.843 457.04 875.827 455.568C877.811 454.096 879.379 451.728 880.531 448.464L860.851 402H874.387L886.867 434.256Z" fill="black" style="fill:black;fill:black;fill-opacity:1;"/>
<rect x="576" y="71.5371" width="19" height="36" rx="9.5" transform="rotate(-37.3672 576 71.5371)" fill="#39B946" style="fill:#39B946;fill:color(display-p3 0.2235 0.7255 0.2745);fill-opacity:1;"/>
<rect x="634.213" y="38" width="19" height="62.5065" rx="9.5" transform="rotate(4.1403 634.213 38)" fill="#39B946" style="fill:#39B946;fill:color(display-p3 0.2235 0.7255 0.2745);fill-opacity:1;"/>
<rect x="685.241" y="80.0059" width="19" height="39.8359" rx="9.5" transform="rotate(37.4823 685.241 80.0059)" fill="#39B946" style="fill:#39B946;fill:color(display-p3 0.2235 0.7255 0.2745);fill-opacity:1;"/>
<defs>
<linearGradient id="paint0_linear_16537_14778" x1="490.25" y1="122.5" x2="490.25" y2="512" gradientUnits="userSpaceOnUse">
<stop stop-color="#3EB54A" style="stop-color:#3EB54A;stop-color:color(display-p3 0.2431 0.7098 0.2902);stop-opacity:1;"/>
<stop offset="1" stop-color="#0ADB1F" style="stop-color:#0ADB1F;stop-color:color(display-p3 0.0405 0.8569 0.1228);stop-opacity:1;"/>
</linearGradient>
</defs>
</svg>
