<svg fill="none" height="36" viewBox="0 0 150 36" width="150" xmlns="http://www.w3.org/2000/svg"><g clip-rule="evenodd" fill-rule="evenodd"><g fill="#425277"><path d="m38.9337 13.4895h2.181 1.0501c.4038 0 .7269-.0808 1.05-.2423.3231-.1616.5655-.3231.727-.5654.1616-.2424.3231-.6463.3231-1.0501 0-.4039-.0808-.8078-.2423-1.0501-.1616-.2423-.4039-.4847-.6462-.5654-.2423-.16159-.5654-.24236-.8885-.24236-.3231-.08078-.727-.08078-1.0501-.08078h-2.4233v3.79644zm-3.7156-7.02746h6.5428c.8885 0 1.6963.08078 2.4232.24233.8078.16155 1.454.48465 2.0194.80775.5655.40388 1.0501.88853 1.3732 1.61551.3231.64621.4847 1.53477.4847 2.50407 0 1.2116-.3231 2.2617-.9693 3.0694-.6462.8078-1.5348 1.3732-2.7464 1.6155l4.2811 7.1891h-4.4427l-3.5541-6.7852h-1.8578v6.7852h-3.7157v-17.04366z"/><path d="m53.3926 17.6091c0 .8885.2423 1.6155.7269 2.1809.4847.5654 1.2117.8077 2.1002.8077s1.6155-.2423 2.1002-.8077c.4846-.5654.7269-1.2924.7269-2.1809 0-.8886-.2423-1.6156-.7269-2.181-.4847-.5654-1.2117-.8077-2.1002-.8077s-1.6155.2423-2.1002.8077c-.4846.6462-.7269 1.2924-.7269 2.181zm-3.5542 0c0-.9694.1616-1.7771.4847-2.5041s.8077-1.3732 1.3732-1.9386c.5654-.5654 1.2924-.9693 2.0194-1.2116.8077-.3231 1.6155-.4039 2.504-.4039s1.6963.1615 2.504.4039c.8078.3231 1.454.727 2.0194 1.2116.5655.5654 1.0501 1.2116 1.3732 1.9386s.4847 1.6155.4847 2.5041c0 .9693-.1616 1.777-.4847 2.504s-.8077 1.3732-1.3732 1.9386c-.5654.5654-1.2924.9693-2.0194 1.2116-.8077.3231-1.6155.4039-2.504.4039s-1.6963-.1615-2.504-.4039c-.8078-.3231-1.454-.7269-2.0194-1.2116-.5655-.5654-1.0501-1.2116-1.3732-1.9386s-.4847-1.5347-.4847-2.504z"/><path d="m75.929 23.5057h-3.4734v-1.6155h-.0808c-.1615.2423-.3231.4846-.4846.6462-.1616.2423-.4039.4039-.727.6462-.3231.1615-.6462.3231-.9693.4039-.4039.0807-.727.1615-1.2116.1615-.8886 0-1.6155-.1615-2.181-.4039-.5654-.2423-.9693-.6462-1.2924-1.1308-.3231-.4847-.4846-1.0501-.6462-1.7771-.0807-.6462-.1615-1.3732-.1615-2.1809v-6.4621h3.5541v5.7351 1.0501c0 .3231.0808.727.2423.9693.1616.2423.3231.5654.5654.727.2424.1615.5655.3231 1.0501.3231.4847 0 .8078-.0808 1.1309-.2424.3231-.1615.4846-.4038.6462-.6462.1615-.2423.2423-.5654.3231-.9693.0808-.3231.0808-.7269.0808-1.1308v-5.8159h3.6349z"/><path d="m86.3489 14.7011h-3.1502v3.8773c0 .3231 0 .6462.0807.8885 0 .2423.0808.4846.2424.6462.0808.1615.2423.3231.4846.4846.2424.0808.5655.1616.8886.1616.1615 0 .4038 0 .7269-.0808.3231 0 .5655-.1615.727-.2423v2.9887c-.4039.1615-.8077.2423-1.2116.3231s-.8885.0808-1.2924.0808c-.5654 0-1.1309-.0808-1.6963-.1616-.4847-.1615-.9693-.3231-1.3732-.6462-.4039-.2423-.6462-.6462-.8885-1.1308-.2423-.4847-.3231-.9694-.3231-1.6156v-5.5735h-2.2617v-2.9079h2.2617v-3.47332h3.5541v3.47332h3.1502v2.9079z"/><path d="m96.1228 16.3166c0-.6462-.1616-1.1308-.5655-1.5347-.4038-.4039-.9693-.6462-1.6155-.6462-.4039 0-.727.0808-1.0501.1616-.3231.1615-.5654.3231-.8077.4846-.2423.2423-.4039.4039-.4847.727-.0807.2423-.1615.5654-.2423.8077zm3.0694 5.1697c-.5654.727-1.2924 1.2924-2.1809 1.6963-.8885.4038-1.7771.5654-2.7464.5654-.8885 0-1.6963-.1616-2.504-.4039-.8078-.3231-1.454-.727-2.0194-1.2116-.5654-.5655-1.0501-1.2117-1.3732-1.9386-.3231-.727-.4846-1.6155-.4846-2.5041 0-.9693.1615-1.777.4846-2.504s.8078-1.3732 1.3732-1.9386c.5654-.5655 1.2924-.9693 2.0194-1.2117.8077-.3231 1.6155-.4038 2.504-.4038.8078 0 1.6155.1615 2.2617.4038.6462.3231 1.2117.727 1.6963 1.2117.4847.5654.8078 1.2116 1.0501 1.9386s.4039 1.6155.4039 2.504v1.1309h-8.3199c.1616.727.4847 1.2116.9693 1.6155.4847.4039 1.0501.6462 1.7771.6462.5654 0 1.0501-.1616 1.4539-.4039.4039-.2423.727-.6462 1.0501-1.0501z"/></g><path d="m108.562 11.147-3.796 5.8966h3.796zm0 8.9661h-7.35v-3.0695l6.866-10.58155h3.877v10.58155h2.181v3.0695h-2.181v3.3926h-3.474v-3.3926z" fill="#ffc63c"/><path d="m116.478 6.46205h5.574l3.958 11.14705 3.958-11.14705h5.573v17.04365h-3.715v-13.0857h-.081l-4.443 13.0857h-2.827l-4.281-13.0857v13.0857h-3.716z" fill="#425277"/><path d="m146.446 16.3166c0-.6462-.162-1.1308-.566-1.5347-.403-.4039-.969-.6462-1.615-.6462-.404 0-.727.0808-1.05.1616-.323.1615-.566.3231-.808.4846-.242.2423-.404.4039-.485.727-.08.2423-.161.5654-.242.8077zm3.069 5.1697c-.565.727-1.292 1.2924-2.181 1.6963-.888.4038-1.777.5654-2.746.5654-.888 0-1.696-.1616-2.504-.4039-.808-.3231-1.454-.727-2.019-1.2116-.566-.5655-1.05-1.2117-1.374-1.9386-.323-.727-.484-1.6155-.484-2.5041 0-.9693.161-1.777.484-2.504.324-.727.808-1.3732 1.374-1.9386.565-.5655 1.292-.9693 2.019-1.2117.808-.3231 1.616-.4038 2.504-.4038.808 0 1.616.1615 2.262.4038.646.3231 1.211.727 1.696 1.2117.485.5654.808 1.2116 1.05 1.9386s.404 1.6155.404 2.504v1.1309h-8.32c.162.727.485 1.2116.969 1.6155.485.4039 1.051.6462 1.777.6462.566 0 1.051-.1616 1.454-.4039.404-.2423.727-.6462 1.051-1.0501z" fill="#425277"/><path d="m28.1906 1.53473c0-.888526.727-1.53473 1.5347-1.53473.8886 0 1.5348.726979 1.5348 1.53473 0 .88853-.727 1.53474-1.5348 1.53474-.8077.08077-1.5347-.64621-1.5347-1.53474z" fill="#ff6400"/><path d="m0 1.53473c0-.807751.726979-1.53473 1.53473-1.53473.88853 0 1.61551.726979 1.61551 1.53473 0 .88853-.72698 1.61551-1.61551 1.61551-.807751 0-1.53473-.72698-1.53473-1.61551z" fill="#ff6400"/><path d="m22.2941 33.6834c0-.8886.7269-1.5348 1.5347-1.5348.8885 0 1.5347.727 1.5347 1.5348 0 .8885-.7269 1.5347-1.5347 1.5347s-1.5347-.6462-1.5347-1.5347z" fill="#ff6400"/><path d="m20.0323 6.62363c.2423.24232.2423.56543 0 .72698l-2.6656 2.66559c-.2423.2423-.1616.4039.1616.5654 1.5347.5655 2.7463 1.7771 3.231 3.231.0807.2424.3231.3231.5654.1616l2.6656-2.6656c.2423-.2423.5654-.2423.727 0l2.3425 2.3425c.2423.2423.4038.1615.4038-.1616v-9.28914c0-.16155-.0807-.24232-.2423-.24232h-9.3699c-.3232 0-.3232.16155-.1616.40387zm-6.3005 3.87717c.2423-.0807.3231-.3231.1616-.56538l-2.6656-2.66559c-.2424-.24233-.2424-.56543 0-.72698l2.3425-2.34249c.2423-.24232.1615-.40387-.1616-.40387h-9.2084c-.16155.16155-.3231.24232-.3231.40387v9.28914c0 .3231.16155.3231.40387.1616l2.34249-2.3425c.24233-.2423.56543-.2423.72698 0l2.66556 2.6656c.2424.2423.4039.1615.5655-.1616.4846-1.5347 1.6962-2.7463 3.1502-3.3118zm2.1809 10.6624c-.3231 0-.4038.2423-.3231.4847l1.5348 3.3925c.0807.2424 0 .5655-.2424.727l-2.9886 1.3732c-.2424.1615-.2424.3231 0 .4039l8.7237 3.1502c.1616.0808.3231 0 .3231-.1615l3.231-8.7238c.0808-.2423 0-.4039-.3231-.2423l-2.9887 1.3732c-.2423.1615-.5654 0-.727-.2424l-1.6962-3.6349c-.0808-.2423-.3231-.2423-.4847-.0807-.4846.6462-1.1308 1.2116-1.9386 1.6155-.4847.2423-1.1309.4039-1.6963.4846 0 0-.2423.0808-.4039.0808z" fill="#ffc63c"/><path d="m11.7124 15.6705c0-2.181 1.7771-3.8773 3.8772-3.8773 2.181 0 3.8772 1.7771 3.8772 3.8773 0 2.1809-1.777 3.958-3.8772 3.958-2.1001-.0808-3.8772-1.7771-3.8772-3.958z" fill="#ff6400"/></g></svg>