<svg viewBox="0 0 258 264" xmlns="http://www.w3.org/2000/svg"><path d="m47.2 19.1c-17.9 21.4-27.5 44.9-29.8 73.4l-.5 6.3h-8.5c-9.9 0-8.9 1.4-7.8-11 3-31 14.3-57.2 35-81.6l5.3-6.2 6.1 6.1 6 6zm47.6 39.4c-9.2 11.6-14.2 23-15.1 34.8l-.5 5.6h-59.3l.5-6.3c2.2-28.1 12.9-53.5 30.9-73.7l4.1-4.6 20.8 20.7 20.8 20.8-2.1 2.6zm62.5-37.2c13.8 2.6 28.2 9.7 38.5 18.8l2.7 2.4-6 6-5.9 5.9-2.2-1.7c-4.9-4-10.9-7.8-15.8-10.1-5.6-2.6-15.5-5.3-19.6-5.3-5.8 0-5.7 0-5.7-9v-8.2h4.2c2.3 0 6.8.5 9.9 1.1zm62.9 12.6c14.3 17.3 22.4 37.1 24.2 59l.5 5.9h-39.6v-3.8c0-10.9-6-25.2-15.5-36.8l-1.9-2.4 13.6-13.6c7.5-7.5 13.8-13.5 14-13.5s2.4 2.4 4.7 5.1zm-78.5 15.5v9.2l-3.9.5c-8 .9-15 4-23.1 10.1-.7.5-2.6-.9-7.4-5.7-3.5-3.5-6.5-6.6-6.5-6.9 0-1.2 9.8-7.8 15.4-10.6 6.7-3.3 15.4-5.6 21.3-5.6h4.1s0 9.2 0 9.2zm15-7.8c3.4.9 8.7 2.7 11.8 4.3 5.4 2.6 15.4 9.4 15.4 10.6s-2.9 3.4-6.5 6.9c-4.8 4.8-6.7 6.2-7.4 5.7-8.1-6.1-13.6-8.6-22-10l-4.6-.7-.2-9.2-.2-9.1h3.8c2.1 0 6.5.7 9.9 1.4zm-46.8 33.1c-3.9 4.5-6.8 11-8.2 18l-1.2 6.1h-18.5l.5-5.4c.9-10.2 6.1-22.4 13.5-31.7l2.9-3.7 6.9 6.8 6.8 6.8-2.6 3.1zm80-11.8c7.5 9.8 12.6 23 12.6 32.5v3.4h-18.2l-1.2-6c-1.4-7.1-3.6-12.2-7.7-17.6l-2.9-3.9 6.2-6.2c3.4-3.5 6.7-6.3 7.2-6.3s2.3 1.9 4 4.1zm-89 39.7c0 6.6 4.5 18 9 23.3l2.4 2.8-6.8 6.7-6.8 6.7-2.4-2.9c-7.7-9.1-13.9-24.6-14-34.9v-3.4h9.3c9.1.1 9.3.1 9.3 1.7zm101.4 4.1c-.8 10.4-6.6 24.1-13.8 32.5l-2.4 2.9-6.5-6.4c-3.5-3.5-6.5-6.6-6.5-6.9s1.3-2.2 2.9-4.3c3.6-4.7 6.3-11.4 7.4-18.2l.9-5.2h18.4l-.4 5.7zm42.2.6c-1.5 18.6-8.4 37.7-18.7 52.1-4.5 6.3-9.2 11.7-10.2 11.7s-6.6-6.1-14-13.5l-13.6-13.6 2.5-2.7c8-8.8 13.8-22 14.7-33.3.2-2.9.5-5.6.7-6.1.2-.7 4.7-.9 19.7-.9h19.5l-.5 6.2zm-127.1 25.8c5.9 4.7 16.2 8.6 22.8 8.7 1.6 0 1.6.2 1.6 9.4v9.4l-5.1-.5c-7.2-.6-12.8-2.2-20.3-5.8-6.7-3.2-15.4-9.2-15.4-10.7s12-13.4 12.8-13.4c0 0 1.8 1.4 3.7 2.9zm60.7 3.9 6.7 6.7-3.2 2.7c-9.9 8.1-24.5 13.9-34.9 14h-3.4v-18.4l4.1-.5c7.7-.9 18.2-5.5 22-9.7.7-.8 1.5-1.4 1.7-1.4.3 0 3.5 3 7.1 6.6zm-75.9 12c9 8 23.2 13.5 36.6 14.5l2.5.2.2 8.4.2 8.5h-3.5c-9.2 0-23.8-4.1-33.6-9.3-5.9-3.2-13.8-8.7-16.5-11.7l-1.8-1.9 5.6-5.6c3.1-3.1 5.9-5.7 6.3-5.7s2.1 1.3 3.9 2.9zm98.5 10.6 13.5 13.4-3.4 3.1c-15.9 14.8-40.7 25-61.9 25.8l-5.3.2v-38.6l5-.5c6.3-.6 12.8-2.2 18.9-4.9 5.4-2.2 13.8-7.5 16.4-10.4 1-1 2.1-1.9 2.5-1.9s6.9 6.1 14.3 13.5zm21.7 21.7 5.9 6-3.8 3.4c-16 14.4-35.4 24.3-56.4 28.8-7.6 1.7-22.5 3.4-24 2.7-.8-.3-1-2.2-1-8.5v-8.2l6.3-.5c23.7-1.9 46.6-11.4 62-25.7 2.4-2.2 4.4-3.9 4.6-4 .3 0 3.1 2.8 6.3 6zm22 22 12.7 13.6-2.7 3.3c-16.2 14.7-33.9 25.7-53 33.1-15.5 6-39 10.7-53.1 10.7h-5.1v-38.4l9.5-.8c16.6-1.5 30.1-5.2 44.5-12.3 10.2-4.9 19.3-10.9 27.2-17.8 3.1-2.8 5.8-5 6.1-5.1.2 0 6.5 6.2 13.9 13.7z" fill="#008e5a" fill-rule="evenodd"/></svg>