<svg viewBox="0 0 368 213.5" xmlns="http://www.w3.org/2000/svg"><path d="m30.7 53.5-30.7-53.1h61.4s-30.6 53.1-30.6 53.1z" fill="#20acd9"/><path d="m30.7 53.5 30.6-53.1 30.6 53.1z" fill="#27a7d4"/><path d="m61.4 107.2-30.8-53.1h61.4s-30.6 53.1-30.6 53.1z" fill="#259ed2"/><path d="m61.4 107.2 30.6-53.1 30.6 53.1z" fill="#2a8ece"/><path d="m92.1 159.8-30.8-53.1h61.4s-30.6 53.1-30.6 53.1z" fill="#3088c8"/><path d="m92.1 159.8 30.6-53.1 30.6 53.1z" fill="#357abe"/><path d="m123.3 213.5-30.8-53.1h61.4s-30.6 53.1-30.6 53.1z" fill="#3a6db3"/><path d="m123.3 213.5 30.6-53.1 30.6 53.1z" fill="#22697d"/><path d="m184.6 213.5-30.8-53.1h61.4s-30.6 53.1-30.6 53.1z" fill="#3a9ab1"/><path d="m153.3 159.8 30.6-53.1 30.6 53.1z" fill="#3aa6ae"/><path d="m214.6 159.8-30.8-53.1h61.4s-30.6 53.1-30.6 53.1z" fill="#3bacac"/><path d="m184.6 107.2 30.6-53.1 30.7 53.1h-61.4z" fill="#3daaa0"/><path d="m245.8 107.2-30.8-53.1h61.4s-30.6 53.1-30.6 53.1z" fill="#3faa8d"/><path d="m214.6 53.5 30.6-53.1 30.6 53.1z" fill="#40ab86"/><path d="m214.6 159.8-30.8-53.1h61.4s-30.6 53.1-30.6 53.1z" fill="#2f6b54"/><path d="m184.6 107.2 30.6-53.1 30.6 53.1z" fill="#44b496"/><path d="m245.8 107.2-30.8-53.1h61.4s-30.6 53.1-30.6 53.1z" fill="#52b89b"/><path d="m214.6 53.5 30.6-53.1 30.6 53.1z" fill="#5cba9d"/><path d="m275.8 53.5-30.8-53.1h61.4s-30.6 53.1-30.6 53.1z" fill="#6fc0a6"/><path d="m275.8 53.5 30.6-53.1 30.7 53.1h-61.4z" fill="#88c9b2"/><path d="m337 53.5-30.6-53.1h61.4s-30.7 53.1-30.7 53.1z" fill="#99d0bb"/><path d="m214.6 159.8 31-53 30.4 53.4z" fill="#37a084"/><path d="m245.8 213.5 30.6-53.1 30.7 53.1h-61.4z" fill="#35896c"/><path d="m307 213.5-30.8-53.1h61.4s-30.6 53.1-30.6 53.1z" fill="#379b7f"/><path d="m307 213.5 30.6-53.1 30.6 53.1z" fill="#3bad91"/><path d="m245.8 213.5-30.8-53.1h61.4s-30.6 53.1-30.6 53.1z" fill="#368f74"/></svg>