<?xml version="1.0" encoding="utf-8" standalone="no"?>
<svg xmlns="http://www.w3.org/2000/svg" xmlns:xl="http://www.w3.org/1999/xlink" version="1.1" viewBox="0 45 940 1653" width="940pt" height="1653pt" xmlns:dc="http://purl.org/dc/elements/1.1/">
  <metadata> Produced by OmniGraffle 6.1 <dc:date>2015-07-14 11:35:50 +0000</dc:date></metadata>
  <defs>
    <marker color="black" id="StickArrow_Marker" markerHeight="8" markerUnits="strokeWidth" markerWidth="10" orient="auto" overflow="visible" viewBox="-1 -4 10 8"><g><path d="M 8 0 L 0 0 M 0 -3 L 8 0 L 0 3" fill="none" stroke-width="1" stroke="currentColor"/></g></marker>
    <g id="canvas1" stroke="none" stroke-opacity="1" stroke-dasharray="none" fill="none" fill-opacity="1">
        <g font-family="Helvetica Neue" font-size="16" font-weight="300">
            <text transform="translate(281 71)" fill="black">
                <tspan x=".072" y="15">Passphrase</tspan>
            </text>
            <text transform="translate(337 112)" fill="black">
                <tspan x=".224" y="15">Salt</tspan>
            </text>
            <rect x="420" y="80" width="100" height="40" fill="#e8edee" />
            <rect x="420" y="80" width="100" height="40" stroke="black" stroke-linecap="round" stroke-linejoin="round" stroke-width="1" />
            <text transform="translate(425 91)" fill="black">
                <tspan x="21.592" y="15">Scrypt</tspan>
            </text>
            <text transform="translate(575 91)" fill="black">
                <tspan x=".44" y="15">KEK</tspan>
            </text>
            <rect x="270" y="280" width="100" height="60" fill="#e8edee" />
            <rect x="270" y="280" width="100" height="60" stroke="black" stroke-linecap="round" stroke-linejoin="round" stroke-width="1" />
            <text transform="translate(275 292)" fill="black">
                <tspan x="29.744" y="15">AES</tspan>
                <tspan x="10.176" y="33">Key Wrap</tspan>
            </text>
            <text transform="translate(304 231)" fill="black">
                <tspan x=".44" y="15">KEK</tspan>
            </text>
            <text transform="translate(282 377)" fill="#1f80d8">
                <tspan font-family="GLYPHICONS Halflings" font-size="12" fill="#1f80d8" x=".388" y="20">🔑</tspan>
                <tspan fill="#1f80d8" x="13.388" y="20">AES Key</tspan>
            </text>
            <rect x="400" y="1020" width="100" height="60" fill="#e8edee" />
            <rect x="400" y="1020" width="100" height="60" stroke="black" stroke-linecap="round" stroke-linejoin="round" stroke-width="1" />
            <text transform="translate(405 1041)" fill="black">
                <tspan x="11.672" y="15">AES CTR</tspan>
            </text>
            <text transform="translate(476.5 956)" fill="#16a548">
                <tspan fill="#16a548" x=".092" y="15">Nonce</tspan>
            </text>
            <line x1="370" y1="86.39456" x2="410.19038" y2="91.862636" marker-end="url(#StickArrow_Marker)" stroke="black" stroke-linecap="round" stroke-linejoin="round" stroke-width="1" />
            <line x1="370" y1="117.64706" x2="410.25064" y2="110.544004" marker-end="url(#StickArrow_Marker)" stroke="black" stroke-linecap="round" stroke-linejoin="round" stroke-width="1" />
            <line x1="520" y1="100" x2="560.1" y2="100" marker-end="url(#StickArrow_Marker)" stroke="black" stroke-linecap="round" stroke-linejoin="round" stroke-width="1" />
            <line x1="320" y1="255" x2="320" y2="270.1" marker-end="url(#StickArrow_Marker)" stroke="black" stroke-linecap="round" stroke-linejoin="round" stroke-width="1" />
            <line x1="320" y1="340" x2="320" y2="361.6" marker-end="url(#StickArrow_Marker)" stroke="black" stroke-linecap="round" stroke-linejoin="round" stroke-width="1" />
            <line x1="491.17647" y1="980" x2="472.66656" y2="1011.46685" marker-end="url(#StickArrow_Marker)" stroke="black" stroke-linecap="round" stroke-linejoin="round" stroke-width="1" />
            <line x1="500" y1="1050" x2="550.1" y2="1050" marker-end="url(#StickArrow_Marker)" stroke="black" stroke-linecap="round" stroke-linejoin="round" stroke-width="1" />
            <path d="M 840 1023.467 C 840 1011.1521 838.73 1009.6285 829.453 997.441 L 829.355 997.3149 C 820.029 985 819.932 985 810.361 985 C 797.617 985 740 985 740 985 L 740 1115 L 840 1115 L 840 1023.467 Z" fill="white" />
            <path d="M 840 1023.467 C 840 1011.1521 838.73 1009.6285 829.453 997.441 L 829.355 997.3149 C 820.029 985 819.932 985 810.361 985 C 797.617 985 740 985 740 985 L 740 1115 L 840 1115 L 840 1023.467 Z M 840 1022.8326 C 840 1011.1521 839.902 1011.1521 819.932 1011.1521 L 819.932 1011.1521 C 819.932 985.1274 819.932 985 810.947 985" stroke="black" stroke-linecap="round" stroke-linejoin="round" stroke-width="1" />
            <text transform="translate(745 1036)" fill="black">
                <tspan font-size="12" x="17.55" y="11">Encrypted</tspan>
                <tspan font-size="12" x="12.552" y="25">File Content</tspan>
            </text>
            <text transform="translate(30 1464)" fill="black">
                <tspan x=".368" y="15">Plaintext Path</tspan>
                <tspan font-size="12" font-style="italic" x="12.668" y="29">foo/bar/file.txt</tspan>
            </text>
            <rect x="300" y="1540" width="100" height="60" fill="#e8edee" />
            <rect x="300" y="1540" width="100" height="60" stroke="black" stroke-linecap="round" stroke-linejoin="round" stroke-width="1" />
            <text transform="translate(305 1561)" fill="black">
                <tspan x="15.376" y="15">AES SIV</tspan>
            </text>
            <text transform="translate(222 1467)" fill="#1f80d8">
                <tspan font-family="GLYPHICONS Halflings" font-size="12" fill="#1f80d8" x=".388" y="20">🔑</tspan>
                <tspan fill="#1f80d8" x="13.388" y="20">AES Key</tspan>
            </text>
            <text transform="translate(399.5 1467)" fill="#f38c00">
                <tspan font-family="GLYPHICONS Halflings" font-size="12" fill="#f38c00" x=".216" y="20">🔑</tspan>
                <tspan fill="#f38c00" x="13.216" y="20">MAC Key</tspan>
            </text>
            <text transform="translate(473 1552)" fill="black">
                <tspan x=".4" y="15">Encrypted</tspan>
                <tspan x="4.696" y="33">Filename</tspan>
            </text>
            <line x1="278.5" y1="1498.5" x2="312.99964" y2="1532.9996" marker-end="url(#StickArrow_Marker)" stroke="black" stroke-linecap="round" stroke-linejoin="round" stroke-width="1" />
            <line x1="421.5" y1="1498.5" x2="387.00036" y2="1532.9996" marker-end="url(#StickArrow_Marker)" stroke="black" stroke-linecap="round" stroke-linejoin="round" stroke-width="1" />
            <line x1="400" y1="1570" x2="458.1" y2="1570" marker-end="url(#StickArrow_Marker)" stroke="black" stroke-linecap="round" stroke-linejoin="round" stroke-width="1" />
            <rect x="570" y="280" width="100" height="60" fill="#e8edee" />
            <rect x="570" y="280" width="100" height="60" stroke="black" stroke-linecap="round" stroke-linejoin="round" stroke-width="1" />
            <text transform="translate(575 292)" fill="black">
                <tspan x="29.744" y="15">AES</tspan>
                <tspan x="10.176" y="33">Key Wrap</tspan>
            </text>
            <text transform="translate(604 231)" fill="black">
                <tspan x=".44" y="15">KEK</tspan>
            </text>
            <text transform="translate(579.5 377)" fill="#f38c00">
                <tspan font-family="GLYPHICONS Halflings" font-size="12" fill="#f38c00" x=".216" y="20">🔑</tspan>
                <tspan fill="#f38c00" x="13.216" y="20">MAC Key</tspan>
            </text>
            <line x1="620" y1="255" x2="620" y2="270.1" marker-end="url(#StickArrow_Marker)" stroke="black" stroke-linecap="round" stroke-linejoin="round" stroke-width="1" />
            <line x1="620" y1="340" x2="620" y2="361.6" marker-end="url(#StickArrow_Marker)" stroke="black" stroke-linecap="round" stroke-linejoin="round" stroke-width="1" />
            <line x1="437.5" y1="294.33333" x2="379.81316" y2="302.02491" marker-end="url(#StickArrow_Marker)" stroke="black" stroke-linecap="round" stroke-linejoin="round" stroke-width="1" />
            <line x1="502.5" y1="325.66667" x2="560.18684" y2="317.97509" marker-end="url(#StickArrow_Marker)" stroke="black" stroke-linecap="round" stroke-linejoin="round" stroke-width="1" />
            <path d="M 520 283.467 C 520 271.1521 518.73 269.6285 509.453 257.441 L 509.355 257.3149 C 500.029 245 499.932 245 490.361 245 C 477.617 245 420 245 420 245 L 420 375 L 520 375 L 520 283.467 Z" fill="white" />
            <path d="M 520 283.467 C 520 271.1521 518.73 269.6285 509.453 257.441 L 509.355 257.3149 C 500.029 245 499.932 245 490.361 245 C 477.617 245 420 245 420 245 L 420 375 L 520 375 L 520 283.467 Z M 520 282.8326 C 520 271.1521 519.902 271.1521 499.932 271.1521 L 499.932 271.1521 C 499.932 245.1274 499.932 245 490.947 245" stroke="black" stroke-linecap="round" stroke-linejoin="round" stroke-width="1" />
            <text transform="translate(423.5 380)" fill="black">
                <tspan font-size="9" x=".1545" y="9">masterkey.cryptomator</tspan>
                <tspan font-size="9" x="25.251" y="20">(JSON file)</tspan>
            </text>
            <text transform="translate(442.5 276)" fill="black">
                <tspan font-size="12" x=".05" y="11">Encrypted</tspan>
                <tspan font-size="12" x="4.166" y="25">AES Key</tspan>
            </text>
            <text transform="translate(442.5 316)" fill="black">
                <tspan font-size="12" x=".05" y="11">Encrypted</tspan>
                <tspan font-size="12" x="2.162" y="25">MAC Key</tspan>
            </text>
            <rect x="480" y="1190" width="100" height="60" fill="#e8edee" />
            <rect x="480" y="1190" width="100" height="60" stroke="black" stroke-linecap="round" stroke-linejoin="round" stroke-width="1" />
            <text transform="translate(485 1202)" fill="black">
                <tspan x="21.296" y="15">HMAC</tspan>
                <tspan x="12.4" y="33">SHA-256</tspan>
            </text>
            <text transform="translate(354 1207)" fill="#f38c00">
                <tspan font-family="GLYPHICONS Halflings" font-size="12" fill="#f38c00" x=".216" y="20">🔑</tspan>
                <tspan fill="#f38c00" x="13.216" y="20">MAC Key</tspan>
            </text>
            <line x1="440" y1="1220" x2="470.1" y2="1220" marker-end="url(#StickArrow_Marker)" stroke="black" stroke-linecap="round" stroke-linejoin="round" stroke-width="1" />
            <text transform="translate(133 1374)" fill="black">
                <tspan x=".032" y="15">Directory Path</tspan>
                <tspan font-size="12" font-style="italic" x="31.668" y="29">foo/bar</tspan>
            </text>
            <text transform="translate(151.5 1554)" fill="black">
                <tspan x=".196" y="15">Filename</tspan>
                <tspan font-size="12" font-style="italic" x="16.498" y="29">file.txt</tspan>
            </text>
            <line x1="104.266667" y1="1459" x2="152.24726" y2="1417.4783" marker-end="url(#StickArrow_Marker)" stroke="black" stroke-linecap="round" stroke-linejoin="round" stroke-width="1" />
            <line x1="104.266667" y1="1501" x2="152.24726" y2="1542.5217" marker-end="url(#StickArrow_Marker)" stroke="black" stroke-linecap="round" stroke-linejoin="round" stroke-width="1" />
            <line x1="221.5" y1="1570" x2="290.1" y2="1570" marker-end="url(#StickArrow_Marker)" stroke="black" stroke-linecap="round" stroke-linejoin="round" stroke-width="1" />
            <rect x="300" y="1360" width="100" height="60" fill="#e8edee" />
            <rect x="300" y="1360" width="100" height="60" stroke="black" stroke-linecap="round" stroke-linejoin="round" stroke-width="1" />
            <text transform="translate(305 1381)" fill="black">
                <tspan x="15.376" y="15">AES SIV</tspan>
            </text>
            <line x1="240" y1="1390" x2="290.1" y2="1390" marker-end="url(#StickArrow_Marker)" stroke="black" stroke-linecap="round" stroke-linejoin="round" stroke-width="1" />
            <rect x="460" y="1360" width="100" height="60" fill="#e8edee" />
            <rect x="460" y="1360" width="100" height="60" stroke="black" stroke-linecap="round" stroke-linejoin="round" stroke-width="1" />
            <text transform="translate(465 1381)" fill="black">
                <tspan x="9.584" y="15">SHA-256*</tspan>
            </text>
            <text transform="translate(615 1372)" fill="black">
                <tspan x=".404" y="15">Encrypted and Hashed</tspan>
                <tspan x="31.532" y="33">Directory Path</tspan>
            </text>
            <line x1="560" y1="1390" x2="600.1" y2="1390" marker-end="url(#StickArrow_Marker)" stroke="black" stroke-linecap="round" stroke-linejoin="round" stroke-width="1" />
            <line x1="400" y1="1390" x2="450.1" y2="1390" marker-end="url(#StickArrow_Marker)" stroke="black" stroke-linecap="round" stroke-linejoin="round" stroke-width="1" />
            <line x1="278.5" y1="1461.5" x2="312.99964" y2="1427.00036" marker-end="url(#StickArrow_Marker)" stroke="black" stroke-linecap="round" stroke-linejoin="round" stroke-width="1" />
            <line x1="421.5" y1="1461.5" x2="387.00036" y2="1427.00036" marker-end="url(#StickArrow_Marker)" stroke="black" stroke-linecap="round" stroke-linejoin="round" stroke-width="1" />
            <rect x="647.5" y="1540" width="100" height="60" fill="#e8edee" />
            <rect x="647.5" y="1540" width="100" height="60" stroke="black" stroke-linecap="round" stroke-linejoin="round" stroke-width="1" />
            <text transform="translate(652.5 1552)" fill="black">
                <tspan x="25.592" y="15">Post-</tspan>
                <tspan x=".104" y="33">processing**</tspan>
            </text>
            <line x1="697.5" y1="1413" x2="697.5" y2="1530.1" marker-end="url(#StickArrow_Marker)" stroke="black" stroke-linecap="round" stroke-linejoin="round" stroke-width="1" />
            <line x1="552" y1="1570" x2="637.6" y2="1570" marker-end="url(#StickArrow_Marker)" stroke="black" stroke-linecap="round" stroke-linejoin="round" stroke-width="1" />
            <text transform="translate(804 1561)" fill="black">
                <tspan x=".228" y="15">Encrypted Path</tspan>
            </text>
            <line x1="747.5" y1="1570" x2="789.1" y2="1570" marker-end="url(#StickArrow_Marker)" stroke="black" stroke-linecap="round" stroke-linejoin="round" stroke-width="1" />
            <text transform="translate(25 1645)" fill="black">
                <tspan font-size="12" x="0" y="11">* No extra level of security, just output shortening</tspan>
                <tspan font-size="12" x="0" y="25">** Base32 encoding and other cryptographically irrelevant operations</tspan>
            </text>
            <text transform="translate(482.5 511)" fill="#16a548">
                <tspan fill="#16a548" x=".224" y="15">IV</tspan>
                <tspan fill="black" x="14.144" y="15">*</tspan>
            </text>
            <rect x="270" y="570" width="100" height="60" fill="#e8edee" />
            <rect x="270" y="570" width="100" height="60" stroke="black" stroke-linecap="round" stroke-linejoin="round" stroke-width="1" />
            <text transform="translate(275 591)" fill="black">
                <tspan x="10.488" y="15">AES CBC</tspan>
            </text>
            <text transform="translate(282 507)" fill="#1f80d8">
                <tspan font-family="GLYPHICONS Halflings" font-size="12" fill="#1f80d8" x=".388" y="20">🔑</tspan>
                <tspan fill="#1f80d8" x="13.388" y="20">AES Key</tspan>
            </text>
            <text transform="translate(61 580)" fill="black">
                <tspan x=".38" y="20">File Size + </tspan>
                <tspan font-family="GLYPHICONS Halflings" font-size="12" fill="#7b269f" x="78.396" y="20">🔑</tspan>
                <tspan fill="#7b269f" x="91.396" y="20">File Key</tspan>
                <tspan x="147.988" y="20">*</tspan>
                <tspan font-size="12" font-style="italic" x="30.32" y="37">PKCS#5 Padding</tspan>
            </text>
            <line x1="220" y1="600" x2="260.1" y2="600" marker-end="url(#StickArrow_Marker)" stroke="black" stroke-linecap="round" stroke-linejoin="round" stroke-width="1" />
            <line x1="320" y1="538.5" x2="320" y2="560.1" marker-end="url(#StickArrow_Marker)" stroke="black" stroke-linecap="round" stroke-linejoin="round" stroke-width="1" />
            <text transform="translate(425 582)" fill="#08a644">
                <tspan fill="#08a644" x="30.9" y="15">Encrypted</tspan>
                <tspan fill="#08a644" x=".196" y="33">File Size + File Key</tspan>
            </text>
            <line x1="370" y1="600" x2="410.1" y2="600" marker-end="url(#StickArrow_Marker)" stroke="black" stroke-linecap="round" stroke-linejoin="round" stroke-width="1" />
            <rect x="660.5" y="570" width="100" height="60" fill="#e8edee" />
            <rect x="660.5" y="570" width="100" height="60" stroke="black" stroke-linecap="round" stroke-linejoin="round" stroke-width="1" />
            <text transform="translate(665.5 582)" fill="black">
                <tspan x="21.296" y="15">HMAC</tspan>
                <tspan x="12.4" y="33">SHA-256</tspan>
            </text>
            <text transform="translate(670 507)" fill="#f38c00">
                <tspan font-family="GLYPHICONS Halflings" font-size="12" fill="#f38c00" x=".216" y="20">🔑</tspan>
                <tspan fill="#f38c00" x="13.216" y="20">MAC Key</tspan>
            </text>
            <line x1="710.5" y1="538.5" x2="710.5" y2="560.1" marker-end="url(#StickArrow_Marker)" stroke="black" stroke-linecap="round" stroke-linejoin="round" stroke-width="1" />
            <line x1="477.5" y1="526.95652" x2="378.98116" y2="572.6464" marker-end="url(#StickArrow_Marker)" stroke="black" stroke-linecap="round" stroke-linejoin="round" stroke-width="1" />
            <path d="M 88 740 L 852 740 C 856.4183 740 860 743.5817 860 748 L 860 772 C 860 776.4183 856.4183 780 852 780 L 88 780 C 83.58172 780 80 776.4183 80 772 L 80 748 C 80 743.5817 83.58172 740 88 740 Z" fill="#15a547" />
            <path d="M 88 740 L 852 740 C 856.4183 740 860 743.5817 860 748 L 860 772 C 860 776.4183 856.4183 780 852 780 L 88 780 C 83.58172 780 80 776.4183 80 772 L 80 748 C 80 743.5817 83.58172 740 88 740 Z" stroke="black" stroke-linecap="round" stroke-linejoin="round" stroke-width=".5" />
            <text transform="translate(85 751)" fill="white">
                <tspan fill="white" x="26.264" y="15">IV (16 Bytes) // Nonce (8 Bytes) // Encrypted File Size + File Key (48 Bytes) // Header MAC (32 Bytes)</tspan>
            </text>
            <text transform="translate(85 715.5)" fill="black">
                <tspan font-weight="bold" x=".02" y="16">HEADER</tspan>
            </text>
            <text transform="translate(805 582)" fill="#16a548">
                <tspan fill="#16a548" x=".428" y="15">Header</tspan>
                <tspan fill="#16a548" x="8.572" y="33">MAC</tspan>
            </text>
            <line x1="760.5" y1="600" x2="790.1" y2="600" marker-end="url(#StickArrow_Marker)" stroke="black" stroke-linecap="round" stroke-linejoin="round" stroke-width="1" />
            <text transform="translate(25 825.5)" fill="black">
                <tspan font-size="12" x="0" y="11">* Random per file change</tspan>
            </text>
            <path d="M 340 1039.67786 C 340 1032.2348 339.09689 1031.3139 332.49991 1023.94786 L 332.43022 1023.87164 C 325.7984 1016.4286 325.72942 1016.4286 318.92338 1016.4286 C 309.86098 1016.4286 268.88889 1016.4286 268.88889 1016.4286 L 268.88889 1095 L 340 1095 L 340 1039.67786 Z" fill="white" />
            <path d="M 340 1039.67786 C 340 1032.2348 339.09689 1031.3139 332.49991 1023.94786 L 332.43022 1023.87164 C 325.7984 1016.4286 325.72942 1016.4286 318.92338 1016.4286 C 309.86098 1016.4286 268.88889 1016.4286 268.88889 1016.4286 L 268.88889 1095 L 340 1095 L 340 1039.67786 Z M 340 1039.2944 C 340 1032.2348 339.93031 1032.2348 325.72942 1032.2348 L 325.72942 1032.2348 C 325.72942 1016.5056 325.72942 1016.4286 319.34009 1016.4286" stroke="black" stroke-linecap="round" stroke-linejoin="round" stroke-width="1" />
            <path d="M 335.55556 1033.9636 C 335.55556 1026.5205 334.65244 1025.59964 328.05547 1018.2336 L 327.98578 1018.15736 C 321.35396 1010.7143 321.28498 1010.7143 314.47893 1010.7143 C 305.41653 1010.7143 264.44444 1010.7143 264.44444 1010.7143 L 264.44444 1089.2857 L 335.55556 1089.2857 L 335.55556 1033.9636 Z" fill="white" />
            <path d="M 335.55556 1033.9636 C 335.55556 1026.5205 334.65244 1025.59964 328.05547 1018.2336 L 327.98578 1018.15736 C 321.35396 1010.7143 321.28498 1010.7143 314.47893 1010.7143 C 305.41653 1010.7143 264.44444 1010.7143 264.44444 1010.7143 L 264.44444 1089.2857 L 335.55556 1089.2857 L 335.55556 1033.9636 Z M 335.55556 1033.58014 C 335.55556 1026.5205 335.48587 1026.5205 321.28498 1026.5205 L 321.28498 1026.5205 C 321.28498 1010.7913 321.28498 1010.7143 314.89564 1010.7143" stroke="black" stroke-linecap="round" stroke-linejoin="round" stroke-width="1" />
            <path d="M 331.11111 1028.2493 C 331.11111 1020.8062 330.208 1019.88536 323.61102 1012.5193 L 323.54133 1012.4431 C 316.90951 1005 316.84053 1005 310.03449 1005 C 300.97209 1005 260 1005 260 1005 L 260 1083.5714 L 331.11111 1083.5714 L 331.11111 1028.2493 Z" fill="white" />
            <path d="M 331.11111 1028.2493 C 331.11111 1020.8062 330.208 1019.88536 323.61102 1012.5193 L 323.54133 1012.4431 C 316.90951 1005 316.84053 1005 310.03449 1005 C 300.97209 1005 260 1005 260 1005 L 260 1083.5714 L 331.11111 1083.5714 L 331.11111 1028.2493 Z M 331.11111 1027.86586 C 331.11111 1020.8062 331.04142 1020.8062 316.84053 1020.8062 L 316.84053 1020.8062 C 316.84053 1005.077 316.84053 1005 310.4512 1005" stroke="black" stroke-linecap="round" stroke-linejoin="round" stroke-width="1" />
            <text transform="translate(265 1030.2857)" fill="black">
                <tspan font-family="Helvetica" font-size="12" x="7.5428602" y="11">Plaintext</tspan>
                <tspan font-family="Helvetica" font-size="12" x="10.2118056" y="25">Chunks</tspan>
            </text>
            <line x1="160" y1="1050" x2="250.1" y2="1050" marker-end="url(#StickArrow_Marker)" stroke="black" stroke-linecap="round" stroke-linejoin="round" stroke-width="1" />
            <text transform="translate(198.5 1030.9793)" fill="black">
                <tspan font-size="12" x=".388" y="11">split</tspan>
            </text>
            <path d="M 160 1023.467 C 160 1011.1521 158.73 1009.6285 149.453 997.441 L 149.355 997.3149 C 140.029 985 139.932 985 130.361 985 C 117.617 985 60 985 60 985 L 60 1115 L 160 1115 L 160 1023.467 Z" fill="white" />
            <path d="M 160 1023.467 C 160 1011.1521 158.73 1009.6285 149.453 997.441 L 149.355 997.3149 C 140.029 985 139.932 985 130.361 985 C 117.617 985 60 985 60 985 L 60 1115 L 160 1115 L 160 1023.467 Z M 160 1022.8326 C 160 1011.1521 159.902 1011.1521 139.932 1011.1521 L 139.932 1011.1521 C 139.932 985.1274 139.932 985 130.947 985" stroke="black" stroke-linecap="round" stroke-linejoin="round" stroke-width="1" />
            <text transform="translate(65 1036)" fill="black">
                <tspan font-size="12" x="21.78" y="11">Plaintext</tspan>
                <tspan font-size="12" x="12.552" y="25">File Content</tspan>
            </text>
            <text transform="translate(74.5 1099)" fill="black">
                <tspan font-size="9" x=".4045" y="9">Random Padding</tspan>
            </text>
            <line x1="60" y1="1094" x2="160" y2="1094" stroke="black" stroke-linecap="round" stroke-linejoin="round" stroke-width="1" stroke-dasharray="4,4" />
            <line x1="340" y1="1050" x2="390.1" y2="1050" marker-end="url(#StickArrow_Marker)" stroke="black" stroke-linecap="round" stroke-linejoin="round" stroke-width="1" />
            <text transform="translate(365 952)" fill="#7b26a0">
                <tspan font-family="GLYPHICONS Halflings" font-size="12" fill="#7b26a0" x=".204" y="20">🔑</tspan>
                <tspan fill="#7b26a0" x="13.204" y="20">File Key</tspan>
            </text>
            <line x1="410.88235" y1="983.5" x2="427.33344" y2="1011.46685" marker-end="url(#StickArrow_Marker)" stroke="black" stroke-linecap="round" stroke-linejoin="round" stroke-width="1" />
            <line x1="530" y1="1050" x2="530" y2="1180.1" marker-end="url(#StickArrow_Marker)" stroke="black" stroke-linecap="round" stroke-linejoin="round" stroke-width="1" />
            <path d="M 640 1039.67786 C 640 1032.2348 639.0969 1031.3139 632.4999 1023.94786 L 632.43022 1023.87164 C 625.7984 1016.4286 625.72942 1016.4286 618.92338 1016.4286 C 609.86098 1016.4286 568.8889 1016.4286 568.8889 1016.4286 L 568.8889 1095 L 640 1095 L 640 1039.67786 Z" fill="white" />
            <path d="M 640 1039.67786 C 640 1032.2348 639.0969 1031.3139 632.4999 1023.94786 L 632.43022 1023.87164 C 625.7984 1016.4286 625.72942 1016.4286 618.92338 1016.4286 C 609.86098 1016.4286 568.8889 1016.4286 568.8889 1016.4286 L 568.8889 1095 L 640 1095 L 640 1039.67786 Z M 640 1039.2944 C 640 1032.2348 639.9303 1032.2348 625.72942 1032.2348 L 625.72942 1032.2348 C 625.72942 1016.5056 625.72942 1016.4286 619.3401 1016.4286" stroke="black" stroke-linecap="round" stroke-linejoin="round" stroke-width="1" />
            <path d="M 635.55556 1033.9636 C 635.55556 1026.5205 634.65244 1025.59964 628.05547 1018.2336 L 627.98578 1018.15736 C 621.35396 1010.7143 621.28498 1010.7143 614.47893 1010.7143 C 605.41653 1010.7143 564.44444 1010.7143 564.44444 1010.7143 L 564.44444 1089.2857 L 635.55556 1089.2857 L 635.55556 1033.9636 Z" fill="white" />
            <path d="M 635.55556 1033.9636 C 635.55556 1026.5205 634.65244 1025.59964 628.05547 1018.2336 L 627.98578 1018.15736 C 621.35396 1010.7143 621.28498 1010.7143 614.47893 1010.7143 C 605.41653 1010.7143 564.44444 1010.7143 564.44444 1010.7143 L 564.44444 1089.2857 L 635.55556 1089.2857 L 635.55556 1033.9636 Z M 635.55556 1033.58014 C 635.55556 1026.5205 635.48587 1026.5205 621.28498 1026.5205 L 621.28498 1026.5205 C 621.28498 1010.7913 621.28498 1010.7143 614.89564 1010.7143" stroke="black" stroke-linecap="round" stroke-linejoin="round" stroke-width="1" />
            <path d="M 631.1111 1028.2493 C 631.1111 1020.8062 630.208 1019.88536 623.61102 1012.5193 L 623.54133 1012.4431 C 616.9095 1005 616.84053 1005 610.0345 1005 C 600.9721 1005 560 1005 560 1005 L 560 1083.5714 L 631.1111 1083.5714 L 631.1111 1028.2493 Z" fill="white" />
            <path d="M 631.1111 1028.2493 C 631.1111 1020.8062 630.208 1019.88536 623.61102 1012.5193 L 623.54133 1012.4431 C 616.9095 1005 616.84053 1005 610.0345 1005 C 600.9721 1005 560 1005 560 1005 L 560 1083.5714 L 631.1111 1083.5714 L 631.1111 1028.2493 Z M 631.1111 1027.86586 C 631.1111 1020.8062 631.04142 1020.8062 616.84053 1020.8062 L 616.84053 1020.8062 C 616.84053 1005.077 616.84053 1005 610.4512 1005" stroke="black" stroke-linecap="round" stroke-linejoin="round" stroke-width="1" />
            <text transform="translate(565 1030.2857)" fill="black">
                <tspan font-family="Helvetica" font-size="12" x="3.5409071" y="11">Encrypted</tspan>
                <tspan font-family="Helvetica" font-size="12" x="10.2118056" y="25">Chunks</tspan>
            </text>
            <text transform="translate(584.5 1068)" fill="black">
                <tspan font-size="9" x=".4155" y="9">MAC</tspan>
            </text>
            <line x1="560" y1="1064" x2="631" y2="1064" stroke="black" stroke-linecap="round" stroke-linejoin="round" stroke-width="1" stroke-dasharray="4,4" />
            <path d="M 580 1220 L 600 1220 L 600 1104.9" marker-end="url(#StickArrow_Marker)" stroke="black" stroke-linecap="round" stroke-linejoin="round" stroke-width="1" />
            <line x1="640" y1="1050" x2="730.1" y2="1050" marker-end="url(#StickArrow_Marker)" stroke="black" stroke-linecap="round" stroke-linejoin="round" stroke-width="1" />
            <text transform="translate(417.5 928)" fill="black">
                <tspan font-size="12" font-style="italic" x=".16" y="11">from header</tspan>
            </text>
            <text transform="translate(680.5 1030.9793)" fill="black">
                <tspan font-size="12" x=".056" y="11">join</tspan>
            </text>
            <path d="M 600 690 C 600.02836 689.77973 610.2564 680 610.76923 626.88797 C 610.76923 606.30705 620 600.33195 620 600.33195 C 620 600.33195 610.76923 592.36515 610.2564 572.44813 C 610.2564 520 600.3655 510.15398 600 510" stroke="#08a644" stroke-linecap="round" stroke-linejoin="round" stroke-width="2" />
            <text transform="translate(466 671)" fill="#16a548">
                <tspan fill="#16a548" x=".276" y="15">Nonce</tspan>
                <tspan x="47.092" y="15">*</tspan>
            </text>
            <text transform="translate(379 1128)" fill="#16a548">
                <tspan font-size="12" fill="#16a548" x=".158" y="11">IV</tspan>
                <tspan font-size="12" fill="black" x="10.598" y="11"> + Chunk Number</tspan>
            </text>
            <line x1="490" y1="1135" x2="520.1" y2="1135" marker-end="url(#StickArrow_Marker)" stroke="black" stroke-linecap="round" stroke-linejoin="round" stroke-width="1" />
        </g>
    </g>
  </defs>
  <use xl:href="#canvas1"/>
</svg>
