<svg id="Layer_1" data-name="Layer 1" xmlns="http://www.w3.org/2000/svg" viewBox="0 0 210 141.67"><defs><style>.cls-1{fill:#79b01a;}.cls-2{fill:#fdfdfd;}</style></defs><title>features-2</title><polygon class="cls-1" points="42.03 80.3 26.36 80.24 26.25 61.85 29.25 61.83 29.34 77.25 42.04 77.3 42.03 80.3"/><polygon class="cls-2" points="73.52 47.32 73.52 100.75 44.94 100.75 16.36 100.75 16.36 30.36 44.94 30.36 59.23 30.36 73.52 47.32"/><path class="cls-1" d="M556,211.41H495.86V138h45.07L556,155.93v55.48Zm-57.16-3H553V157l-13.49-16H498.86v67.38Z" transform="translate(-481 -109.16)"/><polygon class="cls-1" points="73.51 48.82 57.84 48.76 57.73 30.37 60.73 30.35 60.83 45.77 73.53 45.82 73.51 48.82"/><polygon class="cls-2" points="58.66 59.2 58.66 112.63 30.08 112.63 1.5 112.63 1.5 42.25 30.08 42.25 44.37 42.25 58.66 59.2"/><path class="cls-1" d="M541.16,223.29H481V149.91h45.07l15.09,17.91v55.48Zm-57.16-3h54.16V168.91l-13.49-16H484v67.38Z" transform="translate(-481 -109.16)"/><polygon class="cls-1" points="58.66 60.7 42.99 60.64 42.87 42.26 45.87 42.24 45.97 57.65 58.67 57.7 58.66 60.7"/><path class="cls-1" d="M540.78,249a2.37,2.37,0,0,1-2.17-1.42l-5.49-12.54-5,5.17a2.09,2.09,0,0,1-1.51.64h-0.3l-0.5-.16a2.1,2.1,0,0,1-1.29-1.95L524.71,207a2.1,2.1,0,0,1,1.25-1.91l0.29-.13,0.57-.06a2.11,2.11,0,0,1,1.41.54l23.45,21.39a2.09,2.09,0,0,1-1.36,3.64l-7.17.16,5.49,12.54a2.37,2.37,0,0,1-1.22,3.12l-5.68,2.49a2.38,2.38,0,0,1-.95.2h0Z" transform="translate(-481 -109.16)"/><path class="cls-2" d="M526.82,206.45a0.6,0.6,0,0,1,.4.15L550.66,228a0.6,0.6,0,0,1,.16.65,0.59,0.59,0,0,1-.54.38l-9.41.21,6.39,14.59a0.87,0.87,0,0,1-.45,1.14l-5.68,2.49A0.87,0.87,0,0,1,540,247l-6.39-14.59-6.53,6.78a0.59,0.59,0,0,1-.43.18,0.59,0.59,0,0,1-.22,0,0.6,0.6,0,0,1-.37-0.56L526.21,207a0.6,0.6,0,0,1,.36-0.54h0a0.59,0.59,0,0,1,.24,0m0-3a3.57,3.57,0,0,0-1.44.3,3.61,3.61,0,0,0-2.17,3.27L523,238.76a3.59,3.59,0,0,0,6.19,2.51l3.42-3.55,4.59,10.48a3.87,3.87,0,0,0,5.1,2l2.84-1.24,2.84-1.24a3.87,3.87,0,0,0,2-5.1l-4.59-10.48,4.93-.11a3.59,3.59,0,0,0,2.34-6.25l-23.44-21.39a3.62,3.62,0,0,0-2.43-.94h0Z" transform="translate(-481 -109.16)"/><path class="cls-1" d="M683.58,250.84H581.39c-4.09,0-7.42-2.73-7.42-6.08v-27l9.87-74.1a7.23,7.23,0,0,1,7.14-6.25h83.77a7.21,7.21,0,0,1,7.15,6.33L691,217.61v27.15C691,248.11,687.67,250.84,683.58,250.84ZM591,140.45a4.22,4.22,0,0,0-4.17,3.65L577,218v26.76c0,1.67,2,3.08,4.42,3.08H683.58c2.4,0,4.42-1.41,4.42-3.08v-27l-9.08-73.66a4.21,4.21,0,0,0-4.18-3.69H591Z" transform="translate(-481 -109.16)"/><rect class="cls-1" x="94.47" y="107.13" width="114.03" height="3"/><path class="cls-1" d="M587.6,250.84a1.5,1.5,0,0,1-1.5-1.5V238.55a1.5,1.5,0,0,1,3,0v10.78A1.5,1.5,0,0,1,587.6,250.84Z" transform="translate(-481 -109.16)"/><path class="cls-1" d="M597.3,250.84a1.5,1.5,0,0,1-1.5-1.5V238.55a1.5,1.5,0,0,1,3,0v10.78A1.5,1.5,0,0,1,597.3,250.84Z" transform="translate(-481 -109.16)"/><path class="cls-1" d="M607,250.84a1.5,1.5,0,0,1-1.5-1.5V238.55a1.5,1.5,0,0,1,3,0v10.78A1.5,1.5,0,0,1,607,250.84Z" transform="translate(-481 -109.16)"/><path class="cls-1" d="M669.84,240.05a6.4,6.4,0,1,1,6.4-6.4A6.41,6.41,0,0,1,669.84,240.05Zm0-9.8a3.4,3.4,0,1,0,3.4,3.4A3.4,3.4,0,0,0,669.84,230.25Z" transform="translate(-481 -109.16)"/><path class="cls-1" d="M601.88,182.27c0.29,0.2.58,0.37,0.87,0.54-1.8,2.08-5,7-.26,10.1,0,0,3.38.28,1.66-1.59-1.5-1.63-1.33-5,1-7.5a13.82,13.82,0,0,0,2.78.56l0.54,4.17s-3,2.93-1.8,2.74,3.42-2.29,3.42-2.29l-0.17-4.57a8.84,8.84,0,0,0,1-.1C607.72,178.25,601.88,182.27,601.88,182.27Z" transform="translate(-481 -109.16)"/><path class="cls-1" d="M616.26,172.89a3.74,3.74,0,0,1,.45,1.7s1,1,1-1.87a33.79,33.79,0,0,1,.76-6.27s-6.51-1.36-7.7,4.3c0,0,.29,0,0.74,0a9.71,9.71,0,0,0-.67,2.83s-1,.76-1.54,1.19c-2.06,1.57-3,4.9-3,4.9,1.27,1.32,4.41,1.54,4.41,1.54,1.86-1,3.26-5.06,3.26-5.06l0.62-1.38Z" transform="translate(-481 -109.16)"/><path class="cls-1" d="M662.9,182.8c0.3-.16.6-0.34,0.89-0.54,0,0-5.67-4-9.16,2.06a8.73,8.73,0,0,0,1,.1L655.33,189s2.16,2.11,3.33,2.29-1.69-2.74-1.69-2.74l0.7-4.17a14.13,14.13,0,0,0,2.8-.56c2.21,2.49,2.25,5.87.69,7.5-1.79,1.86,1.6,1.59,1.6,1.59C667.62,189.85,664.61,184.89,662.9,182.8Z" transform="translate(-481 -109.16)"/><path class="cls-1" d="M655,181.2s3.14-.22,4.47-1.54c0,0-.8-3.32-2.79-4.9-0.48-.43-1.49-1.19-1.49-1.19a9.49,9.49,0,0,0-.56-2.83c0.45,0,.74,0,0.74,0-1-5.66-7.53-4.3-7.53-4.3a33.35,33.35,0,0,1,.51,6.27c-0.13,2.9.94,1.87,0.94,1.87a3.86,3.86,0,0,1,.52-1.7l1.57,1.87,0.57,1.38S653.15,180.21,655,181.2Z" transform="translate(-481 -109.16)"/><path class="cls-1" d="M633.14,166.57a30.44,30.44,0,0,1,11.91-.08c-0.06-3.46-1.33-10.67-11.69-10.67s-12.07,7.27-12.32,10.71A30.28,30.28,0,0,1,633.14,166.57Zm-3.61-1.81a0.55,0.55,0,0,1-.61-0.5,0.61,0.61,0,0,1,.65-0.49,0.55,0.55,0,0,1,.61.49A0.61,0.61,0,0,1,629.54,164.76Zm1.8,0a0.55,0.55,0,0,1-.62-0.5,0.6,0.6,0,0,1,.65-0.49,0.56,0.56,0,0,1,.62.49A0.6,0.6,0,0,1,631.34,164.76Zm3.61,0a0.57,0.57,0,0,1-.63-0.5,0.58,0.58,0,0,1,.64-0.49,0.57,0.57,0,0,1,.63.49A0.58,0.58,0,0,1,634.95,164.76Zm1.8,0a0.51,0.51,0,1,1,.63-0.5A0.57,0.57,0,0,1,636.75,164.76Zm-2.87-3.07a3.31,3.31,0,0,1,2.85-1.78,3.46,3.46,0,0,1,2.87,1.91,0.92,0.92,0,0,1-.71,1.18h-4.3A1.06,1.06,0,0,1,633.88,161.69Zm-0.72,2.08a0.56,0.56,0,0,1,.62.49,0.59,0.59,0,0,1-.64.5,0.56,0.56,0,0,1-.62-0.5A0.59,0.59,0,0,1,633.16,163.76Zm-6.34-2.08a3.51,3.51,0,0,1,2.94-1.78,3.26,3.26,0,0,1,2.78,1.91,1,1,0,0,1-.76,1.18h-4.3A1,1,0,0,1,626.82,161.69Z" transform="translate(-481 -109.16)"/><path class="cls-1" d="M649.09,186h-3.52a43.36,43.36,0,0,0,2.28-6.3c0.71-2.64-.89-5.09-0.69-7.28a16.26,16.26,0,0,0-.32-4.4,31,31,0,0,0-13.73-.49,29.33,29.33,0,0,0-13.73.28,13.64,13.64,0,0,0-.46,4.07c0.12,2.18-1.6,5.19-1,7.83A43.21,43.21,0,0,0,620,186h-3.94c-1,0-2.15-.54-2.54.37a18.31,18.31,0,0,0-1.63,10.18C612,197.62,613,198,614.1,198h10.59a1.74,1.74,0,0,0,1.64-1.42,24.59,24.59,0,0,1,1.73-5.6,2.06,2.06,0,0,0,.18-0.67,23.36,23.36,0,0,0,4.4,1.4,24.4,24.4,0,0,0,4-1.23,1.87,1.87,0,0,0,.12.47,23.91,23.91,0,0,1,1.47,5.63,1.59,1.59,0,0,0,1.52,1.42h10.59a2.61,2.61,0,0,0,2.31-2.14,15.7,15.7,0,0,0-1-9.5C651.31,185.44,650.12,186,649.09,186Zm-24.38,9.45c-0.05.17-.34,0.11-0.37-0.08a19.6,19.6,0,0,1,0-7.36,18.94,18.94,0,0,0,2.89,1.79A26.75,26.75,0,0,0,624.71,195.45Zm8.58-19.36,1.1,5.66-1.72.39-1.7-.39,1.41-5.67a2.12,2.12,0,0,1-1.94-2,2.34,2.34,0,0,1,2.49-2A2.05,2.05,0,1,1,633.29,176.09Zm7.07,19.28c0,0.19-.33.25-0.38,0.08a25.51,25.51,0,0,0-2.17-5.48,20.21,20.21,0,0,0,2.92-1.68A19.69,19.69,0,0,1,640.36,195.37Z" transform="translate(-481 -109.16)"/><path class="cls-1" d="M520.57,129a1.5,1.5,0,0,1-1.12-2.5,47.93,47.93,0,0,1,9.66-7.81,1.5,1.5,0,1,1,1.59,2.55,45.8,45.8,0,0,0-9,7.26A1.5,1.5,0,0,1,520.57,129Zm53.88-4.59a1.49,1.49,0,0,1-.94-0.33,44.4,44.4,0,0,0-9.86-6.07,1.5,1.5,0,1,1,1.2-2.75,47.41,47.41,0,0,1,10.53,6.48A1.5,1.5,0,0,1,574.45,124.41Zm-33.64-7.87a1.5,1.5,0,0,1-.41-2.94,35.74,35.74,0,0,1,12.38-1.36,1.5,1.5,0,0,1-.2,3,32.64,32.64,0,0,0-11.36,1.25A1.5,1.5,0,0,1,540.81,116.54Z" transform="translate(-481 -109.16)"/><path class="cls-1" d="M563.59,128.06a1.5,1.5,0,0,1-.23-3l11.56-1.83-1.34-12.43a1.5,1.5,0,0,1,3-.32l1.65,15.27L563.82,128Z" transform="translate(-481 -109.16)"/></svg>