<svg id="Layer_1" data-name="Layer 1" xmlns="http://www.w3.org/2000/svg" viewBox="0 0 183 142"><defs><style>.cls-1{fill:#79b01a;}.cls-2{fill:#fdfdfd;}</style></defs><title>features-3</title><path class="cls-1" d="M1037.86,224h-117c-20.24,0-37.34-17.53-37.34-38.43s17.1-38.49,37.34-38.49c1,0,2.07.08,3.2,0.19a55.77,55.77,0,0,1,108.28,17.84,28,28,0,0,1,5.54-.56c15.52,0,28.64,13.54,28.64,29.73S1053.38,224,1037.86,224Zm-117-73.86c-18.62,0-34.34,16.16-34.34,35.43S902.23,221,920.84,221h117c13.9,0,25.64-12.17,25.64-26.73s-11.74-26.79-25.64-26.79a25.85,25.85,0,0,0-6.69.94l-1.92.54,0.08-2.92A52.76,52.76,0,0,0,926.5,149.38l-0.39,1.16-1.21-.14A35,35,0,0,0,920.84,150.14Z" transform="translate(-883.5 -110.25)"/><rect class="cls-1" x="51.37" y="66.93" width="76.93" height="71.08" rx="6.69" ry="6.69"/><path class="cls-2" d="M1005.1,249.76H941.57a8.21,8.21,0,0,1-8.2-8.2V183.88a8.21,8.21,0,0,1,8.2-8.2h63.53a8.21,8.21,0,0,1,8.2,8.2v57.68A8.21,8.21,0,0,1,1005.1,249.76Zm-63.53-71.08a5.21,5.21,0,0,0-5.2,5.2v57.68a5.21,5.21,0,0,0,5.2,5.2h63.53a5.21,5.21,0,0,0,5.2-5.2V183.88a5.21,5.21,0,0,0-5.2-5.2H941.57Z" transform="translate(-883.5 -110.25)"/><circle class="cls-2" cx="89.55" cy="93.34" r="9.14"/><polygon class="cls-2" points="98.69 121.88 79.79 121.88 86.07 96.13 92.87 96.13 98.69 121.88"/><path class="cls-1" d="M1000,183.18h-9V166a17.7,17.7,0,1,0-35.4,0v17.22h-9V166a26.7,26.7,0,1,1,53.4,0v17.22Z" transform="translate(-883.5 -110.25)"/></svg>
