<svg id="Layer_1" data-name="Layer 1" xmlns="http://www.w3.org/2000/svg" viewBox="0 0 160 128.02"><defs><style>.cls-1{fill:#79b01a;}</style></defs><title>features</title><path class="cls-1" d="M269.16,244H120.84a5.85,5.85,0,0,1-5.84-5.84V121.84a5.85,5.85,0,0,1,5.84-5.84H269.16a5.85,5.85,0,0,1,5.84,5.84V238.17A5.85,5.85,0,0,1,269.16,244ZM120.84,118.66a3.18,3.18,0,0,0-3.18,3.18V238.17a3.18,3.18,0,0,0,3.18,3.17H269.16a3.18,3.18,0,0,0,3.18-3.17V121.84a3.18,3.18,0,0,0-3.18-3.18H120.84Z" transform="translate(-115 -115.99)"/><rect class="cls-1" x="1.33" y="23.44" width="157.33" height="2.67"/><circle class="cls-1" cx="13.41" cy="13.26" r="4.81"/><circle class="cls-1" cx="29.26" cy="13.26" r="4.81"/><circle class="cls-1" cx="45.1" cy="13.26" r="4.81"/><path class="cls-1" d="M259,203.69H131v-31H259v31ZM133.71,201H256.29V175.39H133.71V201Z" transform="translate(-115 -115.99)"/><path class="cls-1" d="M182.63,131v-4.37a3,3,0,0,1,.86-2.39,3.26,3.26,0,0,1,2.26-.77,3.42,3.42,0,0,1,2.28.72,2.26,2.26,0,0,1,.86,1.8,0.73,0.73,0,0,1-.15.53,0.66,0.66,0,0,1-.46.14,0.49,0.49,0,0,1-.61-0.42,1.63,1.63,0,0,0-1.89-1.67,1.76,1.76,0,0,0-1.93,2.06V131a1.78,1.78,0,0,0,2,2.06,2.43,2.43,0,0,0,.94-0.16,1.15,1.15,0,0,0,.56-0.46,2.18,2.18,0,0,0,.24-0.52,4.26,4.26,0,0,0,.1-0.58,0.5,0.5,0,0,1,.61-0.42,0.64,0.64,0,0,1,.46.15,0.76,0.76,0,0,1,.15.54,2.3,2.3,0,0,1-.86,1.83,3.41,3.41,0,0,1-2.28.73,3.25,3.25,0,0,1-2.24-.77A3.05,3.05,0,0,1,182.63,131Z" transform="translate(-115 -115.99)"/><path class="cls-1" d="M190.26,133.62v-6a0.36,0.36,0,0,1,.17-0.3,0.74,0.74,0,0,1,.43-0.12,0.63,0.63,0,0,1,.39.12,0.36,0.36,0,0,1,.16.31v0.69a2.35,2.35,0,0,1,.77-0.85,1.94,1.94,0,0,1,1.13-.35h0.49a0.41,0.41,0,0,1,.33.17,0.61,0.61,0,0,1,.14.39,0.58,0.58,0,0,1-.14.38,0.42,0.42,0,0,1-.33.16h-0.49a1.71,1.71,0,0,0-1.29.59,2.16,2.16,0,0,0-.55,1.53v3.3a0.38,0.38,0,0,1-.18.3,0.69,0.69,0,0,1-.43.14,0.68,0.68,0,0,1-.42-0.13A0.38,0.38,0,0,1,190.26,133.62Z" transform="translate(-115 -115.99)"/><path class="cls-1" d="M194.57,127.68a0.49,0.49,0,0,1,.26-0.4,1,1,0,0,1,.52-0.17,0.37,0.37,0,0,1,.39.24l1.91,5,1.72-5a0.38,0.38,0,0,1,.38-0.24,1,1,0,0,1,.52.17,0.49,0.49,0,0,1,.27.42,0.31,0.31,0,0,1,0,.14l-2.2,5.9-0.28.73c-0.05.14-.15,0.37-0.29,0.7a5,5,0,0,1-.36.71c-0.09.14-.23,0.34-0.4,0.57a2,2,0,0,1-.51.51,3.1,3.1,0,0,1-.59.29,2,2,0,0,1-.72.13,0.5,0.5,0,0,1-.57-0.56c0-.36.11-0.54,0.35-0.54a1.71,1.71,0,0,0,1.27-.73,4,4,0,0,0,.84-1.87l-2.41-5.85A0.31,0.31,0,0,1,194.57,127.68Z" transform="translate(-115 -115.99)"/><path class="cls-1" d="M201.6,136.95v-9.34a0.36,0.36,0,0,1,.17-0.3,0.71,0.71,0,0,1,.41-0.12,0.67,0.67,0,0,1,.41.12,0.36,0.36,0,0,1,.16.31v0.6a2.21,2.21,0,0,1,.77-0.79,2.13,2.13,0,0,1,1.17-.32,2.43,2.43,0,0,1,1.85.82,2.78,2.78,0,0,1,.76,2v1.48a2.84,2.84,0,0,1-.77,2,2.34,2.34,0,0,1-1.78.86,2.16,2.16,0,0,1-1.17-.33,2.07,2.07,0,0,1-.78-0.82v3.91a0.38,0.38,0,0,1-.18.3,0.69,0.69,0,0,1-.43.14,0.67,0.67,0,0,1-.42-0.13A0.37,0.37,0,0,1,201.6,136.95Zm1.2-5.2a1.31,1.31,0,0,0,.5.84,1.6,1.6,0,0,0,1.14.48,1.55,1.55,0,0,0,1.15-.53,1.68,1.68,0,0,0,.5-1.19v-1.47a1.64,1.64,0,0,0-.5-1.17,1.59,1.59,0,0,0-1.18-.52,1.57,1.57,0,0,0-1.12.47,1.61,1.61,0,0,0-.49,1.22v1.86Z" transform="translate(-115 -115.99)"/><path class="cls-1" d="M208.72,131.87V124.4a0.35,0.35,0,0,1,.19-0.3,0.73,0.73,0,0,1,.41-0.12,0.75,0.75,0,0,1,.42.12,0.36,0.36,0,0,1,.19.3v2.78h1.83a0.31,0.31,0,0,1,.26.15,0.56,0.56,0,0,1,.1.33,0.53,0.53,0,0,1-.1.33,0.31,0.31,0,0,1-.26.14h-1.83v3.71a1.15,1.15,0,0,0,.27.87,1.36,1.36,0,0,0,.94.25h0.45a0.48,0.48,0,0,1,.39.16,0.6,0.6,0,0,1,0,.78,0.47,0.47,0,0,1-.38.17h-0.45Q208.72,134.06,208.72,131.87Z" transform="translate(-115 -115.99)"/><path class="cls-1" d="M212.87,131.36v-1.48a2.65,2.65,0,0,1,.85-2,2.77,2.77,0,0,1,2-.83,2.81,2.81,0,0,1,2,.83,2.64,2.64,0,0,1,.86,2v1.48a2.68,2.68,0,0,1-.86,2,2.78,2.78,0,0,1-4,0A2.69,2.69,0,0,1,212.87,131.36Zm1.2,0a1.69,1.69,0,0,0,.49,1.2,1.56,1.56,0,0,0,2.33,0,1.7,1.7,0,0,0,.49-1.19v-1.47a1.65,1.65,0,0,0-.49-1.17,1.56,1.56,0,0,0-1.17-.52,1.54,1.54,0,0,0-1.17.52,1.67,1.67,0,0,0-.49,1.17v1.47Z" transform="translate(-115 -115.99)"/><path class="cls-1" d="M220,133.62v-6a0.36,0.36,0,0,1,.17-0.3,0.73,0.73,0,0,1,.43-0.12,0.64,0.64,0,0,1,.39.12,0.36,0.36,0,0,1,.16.31v0.6a2.16,2.16,0,0,1,.76-0.8,2.13,2.13,0,0,1,1.17-.32,1.92,1.92,0,0,1,1.2.4,2.41,2.41,0,0,1,.79,1.06,2.67,2.67,0,0,1,1-1.09,2.31,2.31,0,0,1,1.25-.37,2.35,2.35,0,0,1,1.75.75,2.78,2.78,0,0,1,.73,2v3.74a0.38,0.38,0,0,1-.18.3,0.69,0.69,0,0,1-.43.14,0.66,0.66,0,0,1-.41-0.14,0.38,0.38,0,0,1-.18-0.3v-3.73a1.67,1.67,0,0,0-.46-1.24,1.47,1.47,0,0,0-1.07-.46,1.5,1.5,0,0,0-1.08.46,1.59,1.59,0,0,0-.47,1.19v3.79a0.34,0.34,0,0,1-.18.31,0.82,0.82,0,0,1-.43.11,0.8,0.8,0,0,1-.41-0.11,0.34,0.34,0,0,1-.18-0.31v-3.78a1.68,1.68,0,0,0-.44-1.19,1.42,1.42,0,0,0-1.07-.47,1.49,1.49,0,0,0-1.09.46,1.66,1.66,0,0,0-.46,1.23v3.73a0.39,0.39,0,0,1-.18.3,0.74,0.74,0,0,1-.85,0A0.38,0.38,0,0,1,220,133.62Z" transform="translate(-115 -115.99)"/><path class="cls-1" d="M231,132.26a1.63,1.63,0,0,1,.87-1.59,5.69,5.69,0,0,1,2.52-.45h0.7v-0.31a2.08,2.08,0,0,0-.4-1.27,1.39,1.39,0,0,0-1.2-.54,2.5,2.5,0,0,0-1.07.22,3.76,3.76,0,0,1-.51.22,0.38,0.38,0,0,1-.33-0.2,0.77,0.77,0,0,1-.12-0.41,0.8,0.8,0,0,1,.66-0.59,3.89,3.89,0,0,1,1.4-.25,2.58,2.58,0,0,1,2.09.8,3,3,0,0,1,.67,2v3.71a0.37,0.37,0,0,1-.17.31,0.69,0.69,0,0,1-.43.12,0.63,0.63,0,0,1-.39-0.12,0.37,0.37,0,0,1-.16-0.3v-0.57a2.89,2.89,0,0,1-2.19,1.1,2,2,0,0,1-1.41-.49A1.82,1.82,0,0,1,231,132.26Zm1.22-.13a1.06,1.06,0,0,0,.3.82,1.15,1.15,0,0,0,.81.28,1.8,1.8,0,0,0,1.18-.49,1.36,1.36,0,0,0,.57-1V131h-0.51l-0.72,0a4.85,4.85,0,0,0-.63.09,1.66,1.66,0,0,0-.54.19,1,1,0,0,0-.34.34A1,1,0,0,0,232.22,132.13Z" transform="translate(-115 -115.99)"/><path class="cls-1" d="M237.91,131.87V124.4a0.35,0.35,0,0,1,.19-0.3,0.73,0.73,0,0,1,.41-0.12,0.75,0.75,0,0,1,.42.12,0.36,0.36,0,0,1,.19.3v2.78h1.83a0.31,0.31,0,0,1,.26.15,0.56,0.56,0,0,1,.1.33,0.53,0.53,0,0,1-.1.33,0.31,0.31,0,0,1-.26.14h-1.83v3.71a1.15,1.15,0,0,0,.27.87,1.36,1.36,0,0,0,.94.25h0.45a0.48,0.48,0,0,1,.39.16,0.6,0.6,0,0,1,0,.78,0.47,0.47,0,0,1-.38.17h-0.45Q237.91,134.06,237.91,131.87Z" transform="translate(-115 -115.99)"/><path class="cls-1" d="M242.06,131.36v-1.48a2.65,2.65,0,0,1,.85-2,2.77,2.77,0,0,1,2-.83,2.81,2.81,0,0,1,2,.83,2.64,2.64,0,0,1,.86,2v1.48a2.68,2.68,0,0,1-.86,2,2.78,2.78,0,0,1-4,0A2.69,2.69,0,0,1,242.06,131.36Zm1.2,0a1.69,1.69,0,0,0,.49,1.2,1.56,1.56,0,0,0,2.33,0,1.7,1.7,0,0,0,.49-1.19v-1.47a1.65,1.65,0,0,0-.49-1.17,1.56,1.56,0,0,0-1.17-.52,1.54,1.54,0,0,0-1.17.52,1.67,1.67,0,0,0-.49,1.17v1.47Z" transform="translate(-115 -115.99)"/><path class="cls-1" d="M249.24,133.62v-6a0.36,0.36,0,0,1,.17-0.3,0.73,0.73,0,0,1,.43-0.12,0.64,0.64,0,0,1,.39.12,0.36,0.36,0,0,1,.16.31v0.69a2.37,2.37,0,0,1,.77-0.85,1.93,1.93,0,0,1,1.13-.35h0.49a0.41,0.41,0,0,1,.33.17,0.59,0.59,0,0,1,.14.39,0.56,0.56,0,0,1-.14.38,0.41,0.41,0,0,1-.33.16h-0.49a1.72,1.72,0,0,0-1.29.59,2.17,2.17,0,0,0-.55,1.53v3.3a0.39,0.39,0,0,1-.18.3,0.74,0.74,0,0,1-.85,0A0.38,0.38,0,0,1,249.24,133.62Z" transform="translate(-115 -115.99)"/><path class="cls-1" d="M140.42,187.09a1.06,1.06,0,0,1,.27-0.71,0.85,0.85,0,0,1,.67-0.32,1.12,1.12,0,0,1,.26,0l3.5,1.26L145,183.68a0.87,0.87,0,0,1,1-.86,0.89,0.89,0,0,1,1.05.86l-0.15,3.75,3.61-1.32a1.11,1.11,0,0,1,.3,0,0.81,0.81,0,0,1,.64.34,1.15,1.15,0,0,1,.28.74,0.8,0.8,0,0,1-.62.84l-3.58,1,2.33,3.16a0.85,0.85,0,0,1,.15.5,0.88,0.88,0,0,1-.32.7,1.1,1.1,0,0,1-.74.28,0.77,0.77,0,0,1-.68-0.35L146,190l-2.15,3.25a0.63,0.63,0,0,1-.61.33,1.21,1.21,0,0,1-.71-0.27,0.79,0.79,0,0,1-.36-0.65,0.87,0.87,0,0,1,.21-0.59l2.28-3L141,188A0.84,0.84,0,0,1,140.42,187.09Z" transform="translate(-115 -115.99)"/><path class="cls-1" d="M156.27,187.09a1.06,1.06,0,0,1,.27-0.71,0.85,0.85,0,0,1,.67-0.32,1.12,1.12,0,0,1,.26,0l3.5,1.26-0.15-3.69a0.87,0.87,0,0,1,1-.86,0.89,0.89,0,0,1,1.05.86l-0.15,3.75,3.61-1.32a1.11,1.11,0,0,1,.3,0,0.81,0.81,0,0,1,.64.34,1.15,1.15,0,0,1,.28.74,0.8,0.8,0,0,1-.62.84l-3.58,1,2.33,3.16a0.85,0.85,0,0,1,.15.5,0.88,0.88,0,0,1-.32.7,1.1,1.1,0,0,1-.74.28,0.77,0.77,0,0,1-.68-0.35L161.84,190l-2.15,3.25a0.63,0.63,0,0,1-.61.33,1.21,1.21,0,0,1-.71-0.27,0.79,0.79,0,0,1-.36-0.65,0.87,0.87,0,0,1,.21-0.59l2.28-3L156.89,188A0.84,0.84,0,0,1,156.27,187.09Z" transform="translate(-115 -115.99)"/><path class="cls-1" d="M172.12,187.09a1.06,1.06,0,0,1,.27-0.71,0.85,0.85,0,0,1,.67-0.32,1.12,1.12,0,0,1,.26,0l3.5,1.26-0.15-3.69a0.87,0.87,0,0,1,1-.86,0.89,0.89,0,0,1,1.05.86l-0.15,3.75,3.61-1.32a1.11,1.11,0,0,1,.3,0,0.81,0.81,0,0,1,.64.34,1.15,1.15,0,0,1,.28.74,0.8,0.8,0,0,1-.62.84l-3.58,1,2.33,3.16a0.85,0.85,0,0,1,.15.5,0.88,0.88,0,0,1-.32.7,1.1,1.1,0,0,1-.74.28,0.77,0.77,0,0,1-.68-0.35L177.69,190l-2.15,3.25a0.63,0.63,0,0,1-.61.33,1.21,1.21,0,0,1-.71-0.27,0.79,0.79,0,0,1-.36-0.65,0.87,0.87,0,0,1,.21-0.59l2.28-3L172.74,188A0.84,0.84,0,0,1,172.12,187.09Z" transform="translate(-115 -115.99)"/><path class="cls-1" d="M188,187.09a1.06,1.06,0,0,1,.27-0.71,0.85,0.85,0,0,1,.67-0.32,1.12,1.12,0,0,1,.26,0l3.5,1.26-0.15-3.69a0.87,0.87,0,0,1,1-.86,0.89,0.89,0,0,1,1,.86l-0.15,3.75L198,186.1a1.09,1.09,0,0,1,.3,0,0.82,0.82,0,0,1,.64.34,1.15,1.15,0,0,1,.28.74,0.8,0.8,0,0,1-.62.84l-3.58,1,2.33,3.16a0.85,0.85,0,0,1,.15.5,0.88,0.88,0,0,1-.33.7,1.09,1.09,0,0,1-.74.28,0.76,0.76,0,0,1-.68-0.35L193.53,190l-2.15,3.25a0.63,0.63,0,0,1-.61.33,1.21,1.21,0,0,1-.71-0.27,0.79,0.79,0,0,1-.36-0.65,0.87,0.87,0,0,1,.21-0.59l2.28-3L188.58,188A0.84,0.84,0,0,1,188,187.09Z" transform="translate(-115 -115.99)"/><path class="cls-1" d="M203.82,197.39a1.33,1.33,0,0,1-1.33-1.33v-15.7a1.33,1.33,0,1,1,2.67,0v15.7A1.33,1.33,0,0,1,203.82,197.39Z" transform="translate(-115 -115.99)"/></svg>