<svg xmlns="http://www.w3.org/2000/svg" viewBox="0 0 64 64">
  <defs><clipPath id="c"><circle cx="32" cy="32" r="32"/></clipPath></defs>
  <g clip-path="url(#c)">
    <rect width="64" height="64" fill="#ebf5eb"/>
    <path d="M19.5 26 Q19.5 14 32 14 Q44.5 14 44.5 26 L44.5 41 Q44.5 45 40 45 H24 Q19.5 45 19.5 41 Z" fill="#2f4f4f"/>
    <path d="M8 66 Q9 41 32 41 Q55 41 55 66 Z" fill="#1e2b33"/>
    <rect x="28.5" y="32" width="7" height="10" rx="2.5" fill="#f2c9a7"/>
    <circle cx="32" cy="27.5" r="9.5" fill="#f2c9a7"/>
    <path d="M21.2 27 Q21.2 15.8 32 15.8 Q42.8 15.8 42.8 27 Q42.8 21.5 32 21.5 Q21.2 21.5 21.2 27 Z" fill="#2f4f4f"/>
    
  </g>
</svg>
