<svg xmlns="http://www.w3.org/2000/svg" width="320.864" height="67.131" viewBox="0 0 320.864 67.131"><defs><style>.a{fill:#9c0411;}.b{fill:#05306e;}.c{fill:#fff;}.d{fill:#464545;}.e{fill:#8c8b8b;}</style></defs><g transform="translate(-575 -362)"><path class="a" d="M641.064,394.5a10.893,10.893,0,0,1-5.56,1.475c-5.518,0-7.944-4-7.944-8.224,0-5.532,4.241-7.729,7.986-7.729a12.273,12.273,0,0,1,4.7,1.05L641.6,379a10.819,10.819,0,0,0-6.1-1.673c-8.582,0-12.355,5.544-12.355,10.622,0,2.807,1.361,10.706,12.17,10.706a13.705,13.705,0,0,0,6.88-2.112l-1.135-2.043Z" transform="translate(24.167 7.691)"/><path class="a" d="M649.026,398.651c6.753,0,11.263-4.594,11.263-10.9,0-6.595-5.518-10.423-11.263-10.423s-11.219,3.828-11.219,10.423c0,6.31,4.51,10.9,11.219,10.9Zm0-18.718c5.15,0,6.838,4.156,6.838,7.814,0,3.828-1.461,8.3-6.838,8.3-5.333,0-6.795-4.467-6.795-8.3,0-3.659,1.688-7.814,6.795-7.814Z" transform="translate(31.524 7.691)"/><path class="a" d="M660.356,377.821H656.3v20.348h4.1V385.916c0-3.913,2.965-5.9,6.2-5.9,3.7,0,5.518,1.986,5.518,5.814v12.337h4.1v-13.1c0-5.134-2.822-7.742-8.056-7.742a12.066,12.066,0,0,0-7.8,3.02v-2.523Z" transform="translate(40.805 7.691)"/><path class="b" d="M691.008,394.5a10.9,10.9,0,0,1-5.562,1.475c-5.518,0-7.93-4-7.93-8.224,0-5.532,4.228-7.729,7.972-7.729a12.259,12.259,0,0,1,4.7,1.05L691.546,379a10.785,10.785,0,0,0-6.1-1.673c-8.582,0-12.355,5.544-12.355,10.622,0,2.807,1.361,10.706,12.17,10.706a13.7,13.7,0,0,0,6.88-2.112l-1.134-2.043Z" transform="translate(49.234 7.691)"/><path class="b" d="M707.352,388.228c.47-5.332-1.856-10.9-8.794-10.9-5.149,0-10.808,3.219-10.808,10.252,0,7.161,4.7,11.075,11.816,11.075a14.8,14.8,0,0,0,7.561-2.354l-1.177-2a12.353,12.353,0,0,1-6.255,1.744,7.722,7.722,0,0,1-7.7-7.814Zm-15.078-2.438a5.937,5.937,0,0,1,6.242-5.857c3.6,0,5.107,2.681,5.107,5.857Z" transform="translate(56.591 7.691)"/><path class="b" d="M708.3,377.821H704.24v20.348h4.1V385.916c0-3.913,2.966-5.9,6.2-5.9,3.687,0,5.518,1.986,5.518,5.814v12.337h4.1v-13.1c0-5.134-2.822-7.742-8.07-7.742a12.054,12.054,0,0,0-7.789,3.02v-2.523Z" transform="translate(64.868 7.691)"/><path class="b" d="M727.86,373.585l-4.1,1.22V379.7H720.57v2.112h3.191v12.209c0,4.156,2.184,6.509,6.751,6.509a9.591,9.591,0,0,0,4.654-1.3l-1.009-2.028a6.7,6.7,0,0,1-3.148.68c-2.511,0-3.15-1.7-3.15-4.552V381.81h5.987V379.7H727.86v-6.113Z" transform="translate(73.064 5.815)"/><path class="b" d="M736.606,377.821h-4.013v20.348h4.1V387.222c0-4.522,1.73-6.4,3.831-6.4a7.831,7.831,0,0,1,3.064.852l1.856-2.355a5.813,5.813,0,0,0-3.773-2,5.9,5.9,0,0,0-3.418,1.475l-1.646,1.545v-2.523Z" transform="translate(79.099 7.691)"/><path class="b" d="M755.811,394.71a6.872,6.872,0,0,0,.638,3.459h4.468a11.366,11.366,0,0,1-.993-4.977v-8.947c0-5.943-5.021-6.921-8.439-6.921a11.1,11.1,0,0,0-7.8,2.765l1.6,1.843a9.252,9.252,0,0,1,5.972-2.2,4.471,4.471,0,0,1,4.554,4.07l-5.518,1.544c-4.739,1.263-8.115,3.49-8.115,7.035,0,3.828,2.654,6.267,6.484,6.267,2.1,0,4.1-1.262,5.688-2.679l1.461-1.262Zm0-8.466c.553,6.34-3.192,9.557-6.1,9.557a3.357,3.357,0,0,1-3.291-3.459c0-2.567,1.873-4.114,5.476-5.09l3.914-1.008Z" transform="translate(83.909 7.691)"/><path class="b" d="M768.275,399.075c-4.327,0-6.427-4.112-6.427-8.466,0-4.31,1.958-7.643,6.709-7.643,4.455,0,6.781,3.575,6.781,7.4,0,4.522-2.085,8.707-7.063,8.707Zm7.063,2.127h4.114V371.281h-4.114v12.1h-.084c-1.421-1.957-4.2-3.02-7.292-3.02a10.5,10.5,0,0,0-10.54,10.423c0,6.508,3.929,10.9,10.087,10.9a9.5,9.5,0,0,0,7.745-3.7h.084v3.22Z" transform="translate(91.561 4.658)"/><path class="b" d="M795.151,388.228c.454-5.332-1.859-10.9-8.8-10.9-5.15,0-10.809,3.219-10.809,10.252,0,7.161,4.695,11.075,11.816,11.075a14.808,14.808,0,0,0,7.561-2.354l-1.176-2a12.367,12.367,0,0,1-6.257,1.744,7.721,7.721,0,0,1-7.7-7.814Zm-15.079-2.438a5.934,5.934,0,0,1,6.24-5.857c3.6,0,5.106,2.681,5.106,5.857Z" transform="translate(100.658 7.691)"/><path class="c" d="M605.57,409h-.031a24.575,24.575,0,0,1-24.572-24.565v-.159h24.6V409Zm-24.54-24.662v.1a24.511,24.511,0,0,0,24.477,24.5v-24.6Z" transform="translate(2.995 11.183)"/><path class="c" d="M605.661,392.541H580.929v-.031A24.576,24.576,0,0,1,605.5,367.947h.159v24.594Zm-24.669-.063h24.6V368.01H605.5a24.511,24.511,0,0,0-24.51,24.468Z" transform="translate(2.976 2.985)"/><path class="b" d="M593.4,384.4v-.059h12.128V384.3h-24.54v.128a24.546,24.546,0,0,0,24.54,24.534V396.554A12.149,12.149,0,0,1,593.4,384.4Z" transform="translate(3.005 11.193)"/><path class="a" d="M605.491,367.968A24.545,24.545,0,0,0,580.95,392.5h12.415a12.157,12.157,0,0,1,12.153-12.108h.057V392.5h.042V367.968Z" transform="translate(2.986 2.995)"/><path class="b" d="M609.526,388.386v.059H597.384v-12.2a12.135,12.135,0,0,1,12.142,12.139Z" transform="translate(11.235 7.151)"/><path class="a" d="M597.431,396.52h-.057V384.368h12.214a12.16,12.16,0,0,1-12.157,12.152Z" transform="translate(11.23 11.227)"/><path class="c" d="M601.6,401.286a12.695,12.695,0,1,1,12.7-12.7,12.7,12.7,0,0,1-12.7,12.7Zm0-24.42a11.725,11.725,0,1,0,11.728,11.724A11.733,11.733,0,0,0,601.6,376.866Z" transform="translate(6.982 6.975)"/><path class="d" d="M598.064,429.131H597V362h1.062v67.131Z" transform="translate(11.043 0)"/><path class="d" d="M642.153,385.058H575v-1.064h67.153v1.064Z" transform="translate(0 11.039)"/><path class="d" d="M605.828,418.162a25.344,25.344,0,1,1,25.351-25.345,25.377,25.377,0,0,1-25.351,25.345Zm0-49.718a24.374,24.374,0,1,0,24.381,24.373,24.406,24.406,0,0,0-24.381-24.373Z" transform="translate(2.749 2.747)"/><path class="e" d="M680.14,397.622V396.3h-6.885v1.319h2.654v8.366h1.562v-8.366Zm7.344,8.366v-4.994c0-1.263-.5-2.28-2.122-2.28a2.553,2.553,0,0,0-2.426,1.476l-.029-.015a6.656,6.656,0,0,0,.128-1.433v-3.229H681.5v10.474h1.534v-3.429c0-1.436.79-2.57,1.867-2.57.818,0,1.063.517,1.063,1.407v4.591Zm7.861-4.189a2.763,2.763,0,0,0-2.912-3.085c-2.08,0-3.256,1.606-3.256,3.758,0,2.513,1.218,3.659,3.444,3.659a6.492,6.492,0,0,0,2.466-.458l-.143-1.218a4.91,4.91,0,0,1-2.08.46c-1.421,0-2.154-.748-2.11-2.4H695.3a7.073,7.073,0,0,0,.042-.716Zm-1.534-.359h-3.029a1.636,1.636,0,0,1,1.594-1.594,1.391,1.391,0,0,1,1.436,1.594Zm12.9,4.2-.186-1.391a5.231,5.231,0,0,1-2.038.445c-2.109,0-3.07-1.277-3.07-3.531,0-2.023.918-3.573,2.941-3.573a7.1,7.1,0,0,1,2.1.329l.173-1.433a9.6,9.6,0,0,0-2.139-.272c-3.258,0-4.776,2.193-4.776,5.207,0,2.585,1.19,4.677,4.432,4.677a7.187,7.187,0,0,0,2.568-.458Zm7.382-6.786h-1.651l-1.018,2.9c-.258.731-.559,1.651-.7,2.224h-.014c-.158-.6-.33-1.235-.56-1.865l-1.162-3.256h-1.721l2.669,7.131-.287.76c-.445,1.221-.847,1.55-1.564,1.55a2.581,2.581,0,0,1-.933-.158l-.116,1.347a5.5,5.5,0,0,0,.961.1c1.607,0,2.31-.688,3.142-2.911l2.956-7.82Zm7.6,3.213c0-2.154-.933-3.357-2.625-3.357a2.375,2.375,0,0,0-2.268,1.448h-.029a7,7,0,0,0,.129-1.362v-3.286h-1.535V405.8a9.619,9.619,0,0,0,2.54.3c2.368,0,3.788-1.562,3.788-4.031Zm-1.621.144c0,1.922-.832,2.669-2.053,2.669a3.652,3.652,0,0,1-1.119-.143V402.53c0-1.206.617-2.541,1.765-2.541.963,0,1.407.79,1.407,2.226Zm9.042-.416a2.763,2.763,0,0,0-2.912-3.085c-2.08,0-3.256,1.606-3.256,3.758,0,2.513,1.218,3.659,3.444,3.659a6.491,6.491,0,0,0,2.466-.458l-.143-1.218a4.911,4.911,0,0,1-2.08.46c-1.421,0-2.154-.748-2.11-2.4h4.549a7.038,7.038,0,0,0,.042-.716Zm-1.533-.359h-3.029a1.636,1.636,0,0,1,1.594-1.594,1.391,1.391,0,0,1,1.436,1.594Zm7-2.726a2.2,2.2,0,0,0-2.367,1.72h-.029a9.525,9.525,0,0,0,.143-1.577h-1.461v7.131H732.4v-2.9c0-2.139.69-3.13,2.11-2.872l.071-1.5Zm5.793,5.108c0-2.369-3.157-1.666-3.157-3.043,0-.545.416-.891,1.263-.891a5.026,5.026,0,0,1,1.392.2l.042-1.247a8.509,8.509,0,0,0-1.334-.129c-1.938,0-2.941.975-2.941,2.208,0,2.469,3.128,1.609,3.128,3.044,0,.589-.575.948-1.409.948a5.75,5.75,0,0,1-1.548-.23l-.042,1.3a8.173,8.173,0,0,0,1.5.143c1.909,0,3.1-.973,3.1-2.308Zm7.4-2.023a2.763,2.763,0,0,0-2.912-3.085c-2.082,0-3.258,1.606-3.258,3.758,0,2.513,1.22,3.659,3.444,3.659a6.5,6.5,0,0,0,2.468-.458l-.144-1.218a4.909,4.909,0,0,1-2.079.46c-1.422,0-2.154-.748-2.112-2.4h4.549a7.086,7.086,0,0,0,.044-.716Zm-1.533-.359h-3.031a1.636,1.636,0,0,1,1.594-1.594,1.391,1.391,0,0,1,1.437,1.594Zm7.965,4.3-.129-1.305a3.554,3.554,0,0,1-1.55.345c-1.421,0-1.894-.991-1.894-2.3,0-1.506.659-2.469,1.966-2.469a4.179,4.179,0,0,1,1.434.273l.158-1.334a5.49,5.49,0,0,0-1.55-.215c-2.453,0-3.614,1.649-3.614,3.917,0,2.54,1.332,3.442,3.169,3.442a5.8,5.8,0,0,0,2.01-.357Zm7.445.243v-7.13h-1.533V402.3c0,1.421-.79,2.555-1.867,2.555-.818,0-1.063-.517-1.063-1.406v-4.591H755.67v4.992c0,1.263.5,2.28,2.122,2.28a2.6,2.6,0,0,0,2.483-1.547l.015.014a9.3,9.3,0,0,0-.1,1.391Zm5.861-7.274a2.2,2.2,0,0,0-2.369,1.72h-.028a9.535,9.535,0,0,0,.144-1.577H763.8v7.131h1.533v-2.9c0-2.139.689-3.13,2.11-2.872l.072-1.5Zm3.106-1.88a.964.964,0,0,0-.975-.961.961.961,0,1,0,.975.961Zm-.215,9.154v-7.131H768.87v7.131Zm6.009-.029V404.7a3.841,3.841,0,0,1-.933.116c-.718,0-.933-.287-.933-1.35v-3.417h1.865v-1.188h-1.88v-2.684l-1.518.415v2.269H771.65v1.188h1.364v3.891c0,1.592.458,2.179,1.978,2.179a7.469,7.469,0,0,0,1.421-.158Zm7.805-7.1h-1.651l-1.018,2.9c-.258.731-.56,1.651-.7,2.224h-.015c-.158-.6-.329-1.235-.559-1.865l-1.162-3.256h-1.721l2.669,7.131-.288.76c-.445,1.221-.846,1.55-1.564,1.55a2.593,2.593,0,0,1-.933-.158l-.114,1.347a5.5,5.5,0,0,0,.961.1c1.607,0,2.31-.688,3.142-2.911l2.956-7.82Zm10.833,6.786-.186-1.391a5.231,5.231,0,0,1-2.038.445c-2.109,0-3.071-1.277-3.071-3.531,0-2.023.919-3.573,2.942-3.573a7.105,7.105,0,0,1,2.1.329l.173-1.433a9.6,9.6,0,0,0-2.139-.272c-3.258,0-4.776,2.193-4.776,5.207,0,2.585,1.19,4.677,4.432,4.677a7.186,7.186,0,0,0,2.568-.458Zm7.885-3.358c0-2.511-1.347-3.572-3.256-3.572a3.532,3.532,0,0,0-3.558,3.8c0,2.513,1.29,3.615,3.271,3.615a3.565,3.565,0,0,0,3.543-3.845Zm-1.577.1c0,1.652-.832,2.427-1.823,2.427-1.191,0-1.823-.847-1.823-2.456,0-1.636.906-2.354,1.838-2.354,1.219,0,1.808.861,1.808,2.382Zm13.556,3.6v-4.922c0-1.621-.76-2.352-2.122-2.352a2.582,2.582,0,0,0-2.384,1.533,1.82,1.82,0,0,0-1.98-1.533,2.564,2.564,0,0,0-2.412,1.548l-.028-.015a9.418,9.418,0,0,0,.1-1.391h-1.461v7.131h1.533v-3.414c0-1.493.847-2.585,1.823-2.585.862,0,1.033.632,1.033,1.436v4.563h1.5v-3.414c0-1.565.919-2.585,1.838-2.585.819,0,1.035.56,1.035,1.449v4.549Zm8.481-3.917c0-2.154-.933-3.357-2.625-3.357a2.426,2.426,0,0,0-2.311,1.476h-.029a8.4,8.4,0,0,0,.086-1.334H817.07v10.632H818.6V406a5.375,5.375,0,0,0,1.077.086c2.383,0,3.717-1.5,3.717-4.018Zm-1.62.144c0,1.922-.832,2.669-2.053,2.669a3.786,3.786,0,0,1-1.12-.143v-2.2c0-1.221.619-2.57,1.766-2.57.963,0,1.407.8,1.407,2.239Zm8.564,3.773c-.029-.6-.043-1.334-.043-1.951v-2.912c0-1.464-.6-2.411-2.783-2.411a7.119,7.119,0,0,0-2.51.473l.143,1.305a4.358,4.358,0,0,1,2.124-.575c1.12,0,1.493.46,1.493,1.35v.46c-2.57,0-4.2.946-4.2,2.583a1.773,1.773,0,0,0,1.993,1.82,2.491,2.491,0,0,0,2.369-1.476l.015.015a9.563,9.563,0,0,0-.072,1.319Zm-1.577-3.085a1.909,1.909,0,0,1-1.751,2.025.866.866,0,0,1-.976-.876c0-.617.488-1.293,2.727-1.293v.144Zm9.665,3.085v-4.994c0-1.263-.5-2.28-2.122-2.28a2.607,2.607,0,0,0-2.484,1.548l-.015-.015a9.276,9.276,0,0,0,.1-1.391h-1.461v7.131h1.533v-3.444c0-1.421.79-2.555,1.867-2.555.819,0,1.062.517,1.062,1.407v4.591Zm7.906-7.13h-1.649l-1.018,2.9c-.258.731-.56,1.651-.7,2.224h-.015c-.158-.6-.33-1.235-.56-1.865l-1.161-3.256h-1.721l2.667,7.131-.287.76c-.445,1.221-.846,1.55-1.564,1.55a2.582,2.582,0,0,1-.933-.158l-.114,1.347a5.5,5.5,0,0,0,.961.1c1.607,0,2.31-.688,3.142-2.911l2.954-7.82Z" transform="translate(49.316 16.821)"/></g></svg>